<?xml version="1.0" standalone="no"?>
<!DOCTYPE svg PUBLIC "-//W3C//DTD SVG 20010904//EN"
 "http://www.w3.org/TR/2001/REC-SVG-20010904/DTD/svg10.dtd">
<svg version="1.0" xmlns="http://www.w3.org/2000/svg"
 width="250.000000pt" height="250.000000pt" viewBox="0 0 250.000000 250.000000"
 preserveAspectRatio="xMidYMid meet">
<metadata>
Created by potrace 1.16, written by Peter Selinger 2001-2019
</metadata>
<g transform="translate(0.000000,250.000000) scale(0.024438,-0.023969)"
fill="#fff" stroke="none">
<path d="M5888 10351 c-75 -11 -195 -69 -253 -122 -53 -49 -156 -182 -186
-240 -26 -53 -116 -277 -145 -364 -57 -174 -155 -558 -264 -1035 -11 -47 -29
-125 -40 -175 -35 -150 -50 -218 -60 -260 -5 -22 -16 -69 -24 -105 -17 -73
-84 -374 -96 -435 -10 -44 -70 -296 -99 -415 -48 -190 -94 -363 -181 -670 -21
-76 -88 -300 -124 -415 -60 -194 -243 -731 -307 -899 -18 -47 -29 -89 -25 -93
6 -6 157 61 212 95 13 8 25 28 29 50 3 20 18 73 32 117 66 209 86 276 108 345
22 71 142 451 288 910 36 113 84 266 107 340 22 74 45 146 50 160 9 26 85 267
165 525 26 83 77 245 114 360 38 116 83 257 101 315 18 58 43 137 55 175 13
39 44 140 70 225 26 85 51 164 55 175 5 11 40 120 79 242 109 339 185 530 217
540 18 6 51 -79 68 -177 10 -52 21 -115 26 -140 5 -25 12 -67 15 -95 3 -27 10
-77 15 -110 5 -33 16 -114 25 -180 9 -66 20 -151 26 -190 5 -38 14 -106 19
-150 5 -44 18 -147 30 -230 11 -82 20 -153 20 -157 0 -23 23 -2 47 43 16 29
33 59 38 68 6 9 28 48 51 86 109 185 144 247 144 252 0 4 6 14 14 22 7 9 35
57 61 106 27 50 64 119 83 155 83 155 168 365 215 530 30 107 31 344 2 410
-80 186 -212 302 -423 375 -107 36 -246 51 -354 36z"/>
<path d="M5738 9448 c-33 -129 -97 -336 -268 -868 -49 -151 -123 -385 -165
-520 -43 -135 -103 -326 -135 -425 -32 -99 -64 -198 -70 -220 -6 -22 -18 -54
-26 -72 -8 -17 -14 -36 -14 -43 0 -11 -45 -157 -95 -305 -13 -38 -51 -158 -85
-265 -33 -107 -67 -213 -75 -235 -7 -22 -41 -128 -75 -235 -34 -107 -70 -220
-80 -250 -10 -30 -25 -77 -33 -105 -27 -91 -158 -499 -184 -575 -14 -41 -35
-91 -48 -111 -34 -53 -134 -114 -418 -256 -297 -148 -483 -252 -820 -455 -130
-79 -279 -183 -339 -236 -50 -46 -61 -79 -33 -102 23 -19 20 -24 -39 -64 -119
-82 -114 -112 6 -39 46 27 106 62 133 78 28 15 136 86 242 156 105 71 209 138
230 150 110 62 219 122 313 171 58 31 136 72 173 92 38 20 73 36 78 36 15 0
10 -27 -11 -65 -11 -20 -34 -73 -51 -118 -55 -144 -193 -428 -255 -527 -48
-75 -135 -161 -214 -209 -369 -226 -497 -372 -682 -777 -86 -187 -204 -521
-379 -1069 -23 -71 -48 -148 -55 -170 -7 -22 -27 -87 -44 -145 -17 -58 -40
-130 -50 -160 -11 -30 -24 -73 -29 -95 -6 -22 -22 -78 -37 -125 -14 -47 -34
-112 -44 -145 -10 -33 -30 -100 -45 -150 -56 -188 -107 -362 -121 -410 -7 -27
-22 -81 -34 -120 -37 -124 -40 -144 -23 -160 18 -18 37 -19 51 -3 10 13 82
191 82 204 0 4 29 80 65 170 36 90 65 167 65 171 0 4 37 106 81 227 45 122 92
250 105 286 12 36 42 115 65 175 23 61 52 139 64 175 41 120 87 245 112 305
14 33 29 74 34 90 4 17 14 48 23 70 8 22 31 83 49 135 99 274 146 392 162 410
38 42 116 16 131 -44 6 -25 -19 -107 -81 -266 -18 -47 -57 -150 -85 -230 -29
-80 -70 -194 -92 -255 -22 -60 -42 -119 -45 -130 -3 -11 -21 -60 -40 -110 -20
-49 -41 -108 -48 -130 -7 -22 -30 -85 -50 -140 -20 -55 -63 -174 -95 -265 -32
-91 -81 -230 -110 -310 -29 -80 -56 -156 -61 -170 -4 -14 -31 -90 -59 -170
-78 -222 -91 -270 -79 -291 13 -26 45 -24 63 3 8 13 65 149 126 303 62 154
118 294 127 310 8 17 104 255 214 530 111 275 207 514 214 530 7 17 70 174
140 350 70 176 133 330 141 343 8 13 25 27 38 32 15 5 30 27 44 62 50 126 386
937 442 1068 16 36 84 198 153 360 68 163 134 317 146 343 34 76 57 127 91
207 50 118 141 288 156 294 50 19 21 -75 -168 -549 -55 -137 -110 -275 -123
-305 -13 -30 -39 -93 -58 -140 -19 -47 -60 -143 -90 -215 -30 -71 -76 -182
-102 -245 -26 -63 -88 -208 -136 -322 -49 -115 -89 -210 -89 -213 0 -2 -11
-28 -24 -57 -13 -29 -49 -114 -80 -188 -32 -74 -68 -159 -82 -188 -13 -29 -24
-56 -24 -61 0 -4 -12 -25 -26 -46 -14 -21 -59 -124 -100 -229 -41 -105 -78
-200 -83 -211 -6 -11 -29 -69 -52 -130 -23 -60 -46 -119 -50 -130 -15 -36
-155 -418 -183 -500 -15 -44 -66 -192 -112 -330 -47 -137 -88 -257 -93 -265
-4 -8 -24 -55 -44 -105 -144 -363 -152 -390 -122 -415 22 -18 44 -5 67 41 32
63 128 269 128 275 0 6 48 109 80 174 10 19 34 73 53 120 38 93 151 350 196
445 16 33 48 105 71 160 23 55 54 127 70 160 15 33 51 114 80 180 48 111 76
176 145 330 15 33 36 82 47 109 45 115 163 362 177 373 19 15 66 17 91 3 25
-13 41 -63 30 -97 -8 -29 -91 -219 -114 -263 -8 -14 -32 -70 -54 -125 -22 -55
-51 -125 -65 -155 -56 -123 -137 -310 -137 -315 0 -3 -34 -80 -75 -170 -41
-91 -75 -168 -75 -171 0 -6 -71 -168 -137 -314 -14 -30 -44 -102 -68 -160 -24
-58 -65 -152 -91 -210 -83 -186 -192 -463 -187 -477 3 -7 18 -13 34 -13 37 0
26 -19 441 800 83 162 158 311 168 330 17 32 164 333 290 595 93 194 170 357
170 362 0 2 21 48 46 101 51 107 142 330 155 377 4 17 19 62 33 100 38 101 75
269 87 393 11 108 1 262 -23 356 -10 40 -8 48 57 201 7 17 25 62 39 100 15 39
40 102 56 140 16 39 38 93 48 120 11 28 43 106 72 175 48 114 92 241 260 734
l57 170 54 23 c30 14 107 45 172 69 64 25 143 58 175 74 31 15 85 40 120 54
34 15 92 40 128 56 35 17 67 30 70 30 3 0 20 6 37 14 200 91 657 266 692 266
2 0 2 -42 -2 -93 -8 -134 17 -317 91 -662 23 -104 98 -393 135 -515 10 -36 31
-105 46 -155 201 -683 566 -1594 915 -2280 111 -217 242 -442 256 -438 21 6
14 66 -15 121 -34 64 -103 270 -311 922 -34 107 -68 215 -77 240 -13 41 -96
322 -145 495 -25 88 -97 358 -107 405 -5 19 -36 141 -70 270 -89 337 -255 995
-285 1130 -90 396 -148 682 -139 691 5 5 68 30 139 56 625 222 830 290 1249
413 77 23 187 56 245 74 130 41 245 76 285 87 17 4 55 15 85 24 51 15 205 56
413 111 49 12 127 30 175 39 48 9 116 23 152 31 156 36 166 43 124 89 l-24 26
-142 -22 c-79 -12 -168 -25 -198 -29 -87 -13 -240 -38 -300 -49 -30 -6 -89
-17 -130 -25 -320 -61 -977 -233 -1410 -371 -41 -13 -142 -45 -225 -71 -82
-26 -224 -71 -314 -101 -90 -30 -167 -50 -172 -46 -12 12 -99 527 -140 828 -6
44 -17 123 -25 175 -8 52 -21 151 -29 220 -8 69 -22 175 -30 235 -8 61 -22
162 -31 225 -8 63 -19 138 -25 165 -5 28 -13 88 -18 135 -5 47 -30 245 -55
440 -60 458 -105 843 -112 950 -9 151 -21 168 -46 68z m11 -2073 c45 -418 159
-1332 175 -1413 l13 -64 -31 -13 c-17 -7 -71 -28 -121 -45 -210 -74 -556 -209
-770 -302 -261 -113 -265 -115 -265 -99 0 6 22 73 49 149 28 75 100 279 161
452 61 173 114 322 117 330 33 88 222 627 234 665 10 35 100 198 187 340 17
28 54 91 83 140 29 50 60 101 69 115 10 14 26 39 36 55 l19 30 11 -75 c7 -41
22 -160 33 -265z"/>
</g>
</svg>
