<svg id="svg" version="1.1" xmlns="http://www.w3.org/2000/svg" xmlns:xlink="http://www.w3.org/1999/xlink" width="400" height="405.18518518518516" viewBox="0, 0, 400,405.18518518518516"><g id="svgg"><path id="path0" d="M0.000 1.481 L 0.000 2.963 200.000 2.963 L 400.000 2.963 400.000 1.481 L 400.000 0.000 200.000 0.000 L 0.000 0.000 0.000 1.481 M223.107 15.674 C 218.632 17.379,215.840 19.673,211.983 24.815 C 209.270 28.431,205.001 38.784,202.590 47.593 C 201.977 49.831,198.064 65.039,197.778 66.296 C 196.528 71.775,195.806 74.900,194.826 79.074 C 193.105 86.399,192.948 87.093,192.603 88.889 C 192.426 89.806,191.844 92.389,191.309 94.630 C 190.125 99.588,186.713 114.734,186.261 117.037 C 186.081 117.954,185.605 120.037,185.203 121.667 C 182.405 133.024,181.392 137.082,180.951 138.704 C 180.674 139.722,180.025 142.139,179.508 144.074 C 178.990 146.009,178.127 149.176,177.589 151.111 C 177.051 153.046,176.389 155.463,176.118 156.481 C 175.847 157.500,175.458 158.833,175.255 159.444 C 175.051 160.056,174.441 162.056,173.899 163.889 C 173.357 165.722,172.694 167.889,172.424 168.704 C 172.155 169.519,171.394 171.935,170.734 174.074 C 169.641 177.611,166.768 186.177,162.906 197.407 C 162.101 199.750,160.853 203.139,160.134 204.938 C 158.509 209.006,158.345 208.924,163.242 206.510 C 166.992 204.662,167.360 204.388,167.602 203.264 C 167.947 201.659,167.938 201.687,178.955 167.037 C 180.995 160.620,182.745 155.037,182.844 154.630 C 182.944 154.222,183.164 153.556,183.335 153.148 C 183.505 152.741,184.168 150.657,184.807 148.519 C 185.446 146.380,186.115 144.213,186.295 143.704 C 186.474 143.194,187.391 140.278,188.332 137.222 C 189.273 134.167,190.271 131.000,190.549 130.185 C 190.828 129.370,191.751 126.454,192.601 123.704 C 194.448 117.725,195.608 114.057,199.746 101.111 C 203.567 89.158,206.560 79.706,207.310 77.222 C 213.839 55.611,219.548 39.670,221.102 38.709 C 221.799 38.279,223.205 41.327,223.832 44.630 C 224.181 46.463,224.624 48.713,224.817 49.630 C 225.010 50.546,225.417 53.130,225.720 55.370 C 227.448 68.128,228.210 73.857,228.553 76.667 C 228.765 78.398,229.088 80.815,229.270 82.037 C 229.453 83.259,229.786 85.759,230.012 87.593 C 230.678 93.015,230.099 93.464,236.357 82.669 C 240.656 75.252,240.727 75.127,242.388 72.037 C 243.155 70.611,243.914 69.278,244.075 69.074 C 244.798 68.160,248.727 60.159,250.351 56.296 C 257.519 39.236,257.275 30.610,249.391 22.402 C 243.534 16.304,230.326 12.924,223.107 15.674 M217.693 92.130 C 217.083 92.823,214.815 97.827,214.815 98.478 C 214.815 98.849,213.772 101.327,212.772 103.333 C 212.518 103.843,211.887 105.509,211.369 107.037 C 210.852 108.565,210.082 110.515,209.659 111.371 C 209.235 112.227,208.883 113.144,208.876 113.408 C 208.869 113.673,208.542 114.556,208.148 115.370 C 207.755 116.185,207.427 117.152,207.420 117.518 C 207.413 117.885,207.134 118.714,206.799 119.361 C 206.465 120.008,205.739 121.874,205.187 123.509 C 203.979 127.085,201.407 134.290,200.423 136.852 C 200.032 137.870,199.423 139.537,199.070 140.556 C 198.717 141.574,197.853 143.991,197.149 145.926 C 196.445 147.861,195.529 150.444,195.113 151.667 C 193.659 155.937,192.517 159.083,192.001 160.241 C 191.715 160.883,191.481 161.700,191.481 162.057 C 191.481 162.414,191.080 163.556,190.589 164.594 C 190.098 165.632,189.426 167.565,189.095 168.889 C 188.764 170.213,188.348 171.630,188.170 172.037 C 187.628 173.279,186.661 175.932,185.678 178.872 C 185.164 180.409,184.510 182.192,184.224 182.834 C 183.938 183.476,183.703 184.226,183.701 184.500 C 183.700 184.775,183.466 185.447,183.181 185.994 C 182.896 186.540,182.542 187.535,182.395 188.204 C 182.248 188.873,181.990 189.676,181.821 189.988 C 179.250 194.739,179.103 200.234,181.571 199.296 C 182.708 198.863,182.231 199.984,186.950 186.667 C 187.781 184.324,189.236 180.241,190.186 177.593 C 191.135 174.944,192.223 171.861,192.604 170.741 C 192.985 169.620,193.903 167.037,194.643 165.000 C 195.945 161.420,198.344 154.627,202.816 141.852 C 204.701 136.469,206.461 132.790,209.579 127.719 C 209.913 127.177,210.744 125.760,211.427 124.570 C 212.111 123.381,214.099 120.094,215.846 117.267 C 219.541 111.286,219.312 111.207,220.149 118.764 C 220.462 121.582,221.067 126.806,221.494 130.370 C 221.921 133.935,222.421 138.185,222.605 139.815 C 223.521 147.933,223.714 149.516,223.891 150.370 C 223.997 150.880,224.247 152.880,224.446 154.815 C 224.646 156.750,225.064 160.333,225.377 162.778 C 225.689 165.222,226.099 168.472,226.286 170.000 C 227.540 180.196,227.909 181.228,229.789 179.806 C 230.534 179.242,230.206 168.764,229.288 163.817 C 229.106 162.838,228.839 160.370,228.693 158.333 C 228.548 156.296,228.261 154.309,228.055 153.916 C 227.850 153.524,227.457 150.774,227.181 147.805 C 226.906 144.836,226.591 141.574,226.482 140.556 C 226.372 139.537,226.024 136.287,225.708 133.333 C 225.392 130.380,224.907 126.546,224.630 124.815 C 224.353 123.083,224.022 120.417,223.895 118.889 C 223.580 115.101,222.348 106.713,221.283 101.111 C 220.799 98.565,220.291 95.648,220.154 94.630 C 219.863 92.464,219.424 91.481,218.748 91.481 C 218.481 91.481,218.007 91.773,217.693 92.130 M346.103 150.014 C 345.981 150.210,345.414 150.370,344.841 150.370 C 344.269 150.370,342.757 150.704,341.481 151.111 C 340.206 151.519,338.643 151.850,338.007 151.847 C 336.729 151.842,331.921 152.795,330.185 153.397 C 329.574 153.610,328.407 153.924,327.593 154.097 C 323.011 155.068,315.361 157.254,305.000 160.553 C 304.185 160.813,302.935 161.146,302.222 161.294 C 301.509 161.441,300.176 161.856,299.259 162.216 C 297.429 162.934,292.615 164.477,290.000 165.184 C 289.083 165.432,287.750 165.848,287.037 166.108 C 286.324 166.368,284.241 167.035,282.407 167.590 C 278.381 168.810,277.085 169.234,276.111 169.651 C 274.871 170.183,269.640 171.852,269.215 171.852 C 268.995 171.852,268.290 172.100,267.649 172.403 C 267.007 172.706,264.648 173.603,262.407 174.395 C 260.167 175.188,257.000 176.309,255.370 176.888 C 253.741 177.466,251.384 178.403,250.132 178.970 C 248.881 179.536,247.741 180.000,247.599 180.000 C 246.985 180.000,240.370 183.099,240.370 183.386 C 240.370 184.021,241.889 183.667,247.097 181.820 C 269.584 173.844,278.259 170.991,294.444 166.247 C 297.194 165.441,300.444 164.430,301.667 163.999 C 302.889 163.569,304.389 163.085,305.000 162.925 C 307.058 162.386,308.866 161.864,315.741 159.825 C 317.574 159.281,320.324 158.525,321.852 158.144 C 323.380 157.764,326.484 156.954,328.750 156.344 C 332.877 155.234,334.237 154.935,339.875 153.897 C 345.401 152.880,347.778 152.147,347.778 151.460 C 347.778 150.874,346.339 149.631,346.103 150.014 M225.741 187.102 C 224.722 187.506,223.239 187.997,222.444 188.192 C 221.650 188.387,219.606 189.124,217.903 189.829 C 216.200 190.534,214.606 191.111,214.362 191.111 C 213.645 191.111,203.354 195.705,195.556 199.507 C 184.964 204.671,181.437 206.296,180.823 206.296 C 178.843 206.296,173.792 210.077,173.469 211.800 C 173.334 212.521,172.574 214.703,171.781 216.648 C 170.987 218.594,170.190 220.769,170.010 221.481 C 169.829 222.194,168.986 224.528,168.137 226.667 C 167.289 228.806,166.424 231.056,166.217 231.667 C 166.010 232.278,165.462 233.528,165.001 234.444 C 164.539 235.361,164.041 236.528,163.894 237.037 C 163.609 238.026,162.314 241.172,160.879 244.362 C 160.396 245.437,160.000 246.577,160.000 246.895 C 160.000 247.213,159.500 248.553,158.889 249.873 C 158.278 251.194,157.778 252.433,157.778 252.626 C 157.778 253.135,155.266 259.634,154.620 260.798 C 154.320 261.339,154.074 262.134,154.074 262.565 C 154.074 262.996,153.590 264.387,152.999 265.656 C 151.241 269.425,150.370 271.454,150.370 271.778 C 150.370 271.946,149.932 272.990,149.397 274.097 C 148.862 275.205,148.214 276.694,147.959 277.407 C 147.409 278.938,145.976 282.054,142.678 288.889 C 141.350 291.639,139.777 294.972,139.182 296.296 C 137.856 299.243,136.493 302.183,135.330 304.603 C 134.294 306.760,134.349 306.883,136.076 306.258 C 138.026 305.553,139.863 306.486,140.214 308.359 C 140.489 309.821,140.274 310.437,136.667 318.519 C 135.621 320.861,134.118 324.361,133.326 326.296 C 132.534 328.231,131.462 330.689,130.943 331.757 C 130.424 332.826,130.000 333.792,130.000 333.904 C 130.000 334.016,129.396 335.392,128.658 336.962 C 127.920 338.531,126.914 340.876,126.422 342.174 C 125.521 344.553,123.866 348.269,122.565 350.837 C 122.177 351.604,121.288 353.687,120.589 355.467 C 119.890 357.247,118.458 360.620,117.406 362.963 C 116.355 365.306,114.492 369.556,113.268 372.407 C 112.043 375.259,110.457 378.926,109.742 380.556 C 103.632 394.500,102.432 398.156,103.970 398.142 C 105.066 398.133,105.304 397.794,108.130 392.222 C 109.628 389.269,111.517 385.602,112.329 384.074 C 113.141 382.546,116.711 375.566,120.263 368.562 C 123.815 361.559,126.863 355.559,127.036 355.229 C 127.580 354.194,135.378 338.146,137.315 334.074 C 142.260 323.683,143.333 321.393,143.333 321.235 C 143.333 321.141,143.819 320.033,144.412 318.773 C 153.877 298.671,156.859 285.930,154.959 273.704 L 154.354 269.815 158.631 259.259 C 160.983 253.454,163.764 246.621,164.811 244.075 C 165.857 241.530,167.608 236.780,168.702 233.520 C 169.796 230.260,171.682 224.759,172.893 221.296 C 175.605 213.546,175.391 214.184,175.872 212.402 C 176.244 211.027,180.129 208.519,181.887 208.519 C 182.388 208.519,187.480 206.443,190.961 204.819 C 192.714 204.002,194.203 203.333,194.270 203.333 C 194.338 203.333,195.529 202.820,196.919 202.192 C 212.544 195.133,229.903 188.574,230.481 189.510 C 230.589 189.684,230.517 190.657,230.322 191.673 C 229.397 196.471,231.949 211.644,236.520 228.519 C 239.195 238.394,239.054 237.919,242.623 249.074 C 249.082 269.260,254.530 283.447,264.454 305.926 C 270.545 319.722,280.963 339.857,282.933 341.640 C 284.205 342.790,283.942 340.584,282.447 337.550 C 281.756 336.147,280.972 334.333,280.704 333.519 C 280.435 332.704,279.920 331.787,279.558 331.481 C 279.196 331.176,277.716 328.593,276.269 325.741 C 274.822 322.889,273.508 320.389,273.350 320.185 C 273.192 319.981,272.594 318.731,272.022 317.407 C 271.450 316.083,270.261 313.492,269.380 311.650 C 268.499 309.807,267.778 308.117,267.778 307.894 C 267.778 307.671,267.194 306.308,266.481 304.866 C 265.769 303.423,265.185 302.153,265.185 302.043 C 265.185 301.934,264.852 301.096,264.444 300.181 C 264.037 299.267,263.383 297.798,262.992 296.918 C 262.601 296.037,262.007 294.412,261.674 293.307 C 261.340 292.201,260.494 290.085,259.793 288.605 C 259.092 287.125,258.516 285.708,258.514 285.457 C 258.512 285.206,257.749 283.000,256.818 280.556 C 255.888 278.111,254.915 275.361,254.655 274.444 C 254.395 273.528,253.843 271.944,253.428 270.926 C 253.013 269.907,252.333 268.074,251.917 266.852 C 251.242 264.874,249.544 259.921,248.487 256.852 C 248.087 255.690,245.651 247.883,243.518 240.926 C 242.831 238.685,241.825 235.435,241.283 233.704 C 240.741 231.972,240.078 229.472,239.810 228.148 C 239.543 226.824,238.818 223.902,238.200 221.656 C 237.583 219.409,236.819 216.242,236.504 214.619 C 236.189 212.995,235.673 210.333,235.357 208.704 C 235.042 207.074,234.623 205.024,234.425 204.148 C 234.228 203.272,233.895 200.855,233.686 198.777 C 232.431 186.340,231.416 184.849,225.741 187.102 M160.201 216.641 C 159.953 217.043,155.610 219.259,155.070 219.259 C 154.630 219.259,148.703 222.036,144.769 224.085 C 143.216 224.894,141.732 225.556,141.471 225.556 C 141.209 225.556,140.470 225.956,139.828 226.446 C 139.186 226.936,137.837 227.724,136.830 228.196 C 135.824 228.669,134.170 229.601,133.157 230.269 C 132.143 230.936,131.199 231.481,131.059 231.481 C 130.808 231.481,125.327 235.094,124.377 235.886 C 123.689 236.459,114.935 242.292,113.755 242.963 C 113.217 243.269,112.724 243.639,112.658 243.786 C 112.592 243.933,111.419 244.797,110.052 245.706 C 107.281 247.549,105.579 249.129,106.873 248.659 C 107.269 248.516,108.009 248.114,108.519 247.766 C 109.028 247.419,111.028 246.249,112.963 245.166 C 114.898 244.083,119.731 241.009,123.704 238.334 C 130.499 233.758,138.105 229.365,148.309 224.123 C 153.633 221.388,154.400 221.334,152.805 223.809 C 152.514 224.260,151.597 226.342,150.767 228.434 C 148.370 234.479,143.160 245.386,141.173 248.519 C 139.174 251.669,135.404 255.122,131.290 257.572 C 118.829 264.991,112.008 273.719,105.723 290.286 C 105.239 291.563,104.607 293.147,104.320 293.804 C 104.033 294.462,102.845 297.750,101.680 301.111 C 100.515 304.472,99.172 308.306,98.696 309.630 C 98.220 310.954,97.549 313.037,97.205 314.259 C 96.861 315.481,96.362 317.065,96.097 317.778 C 95.831 318.491,95.354 319.907,95.037 320.926 C 94.719 321.944,93.809 324.778,93.013 327.222 C 91.643 331.434,89.195 339.323,88.762 340.926 C 88.553 341.699,87.419 345.376,85.735 350.741 C 85.192 352.472,84.448 354.972,84.083 356.296 C 83.717 357.620,82.745 360.954,81.921 363.704 C 79.055 373.278,78.529 375.072,76.646 381.667 C 75.478 385.758,75.479 386.852,76.650 386.852 C 77.447 386.852,77.726 386.441,78.919 383.519 C 80.992 378.439,85.322 366.992,86.975 362.222 C 87.786 359.880,88.777 357.210,89.175 356.290 C 89.574 355.370,90.359 353.287,90.920 351.661 C 92.964 345.736,94.038 342.736,94.827 340.741 C 95.270 339.620,96.449 336.370,97.446 333.519 C 98.444 330.667,99.999 326.417,100.902 324.074 C 101.806 321.731,103.077 318.315,103.726 316.481 C 104.965 312.984,108.388 303.677,108.902 302.407 C 109.067 302.000,109.491 300.833,109.844 299.815 C 111.449 295.190,116.641 295.341,116.196 300.000 C 116.031 301.730,115.822 302.394,113.975 307.037 C 113.006 309.471,112.462 310.981,110.367 317.037 C 110.121 317.750,109.290 320.000,108.520 322.037 C 107.751 324.074,106.527 327.491,105.800 329.630 C 105.072 331.769,103.897 334.992,103.187 336.794 C 102.477 338.595,101.783 340.595,101.645 341.238 C 101.507 341.881,101.293 342.574,101.169 342.778 C 101.045 342.981,100.412 344.648,99.761 346.481 C 97.561 352.682,95.536 358.316,94.102 362.222 C 93.316 364.361,92.582 366.444,92.469 366.852 C 92.161 367.962,90.957 371.361,89.910 374.074 C 89.400 375.398,88.545 377.815,88.012 379.444 C 87.478 381.074,86.545 383.824,85.939 385.556 C 84.704 389.080,84.583 390.087,85.322 390.701 C 86.403 391.598,87.388 389.801,91.626 379.203 C 93.960 373.366,96.126 368.094,96.440 367.488 C 96.753 366.882,97.243 365.740,97.527 364.952 C 98.118 363.313,114.657 322.054,115.175 320.926 C 115.362 320.519,117.036 316.352,118.896 311.667 C 122.593 302.350,122.971 301.601,124.214 301.128 C 124.762 300.920,125.329 300.116,125.835 298.830 C 127.646 294.230,132.698 281.907,133.403 280.370 C 133.824 279.454,134.378 278.120,134.635 277.407 C 134.891 276.694,136.471 272.861,138.145 268.889 C 141.186 261.673,142.887 257.631,147.574 246.481 C 148.944 243.222,150.467 239.676,150.958 238.600 C 151.450 237.525,151.852 236.570,151.852 236.479 C 151.852 236.168,157.738 223.035,159.389 219.663 C 160.695 216.995,161.244 214.954,160.201 216.641 M130.415 314.932 C 129.840 316.376,129.896 316.609,130.583 315.628 C 130.904 315.170,131.091 314.592,130.998 314.342 C 130.905 314.093,130.643 314.358,130.415 314.932 M129.289 317.351 C 129.069 317.763,128.889 318.356,128.889 318.670 C 128.889 318.984,128.556 319.787,128.150 320.454 C 127.743 321.121,127.410 321.890,127.409 322.164 C 127.408 322.437,127.074 323.085,126.667 323.603 C 126.259 324.121,125.926 324.775,125.926 325.057 C 125.926 325.577,124.632 328.442,120.767 336.481 C 119.592 338.926,118.231 341.843,117.742 342.963 C 117.254 344.083,116.650 345.216,116.400 345.480 C 116.150 345.743,115.741 346.660,115.491 347.517 C 115.241 348.373,114.583 349.657,114.030 350.370 C 113.477 351.083,112.852 352.311,112.641 353.099 C 112.430 353.887,112.032 354.804,111.756 355.136 C 111.480 355.469,110.608 357.157,109.818 358.889 C 107.168 364.699,102.555 373.404,101.700 374.206 C 100.202 375.611,93.704 391.336,93.704 393.555 C 93.704 395.294,96.233 394.202,97.066 392.103 C 97.323 391.456,98.318 389.246,99.277 387.193 C 100.236 385.140,101.146 383.057,101.300 382.564 C 101.453 382.070,102.409 380.000,103.424 377.963 C 104.439 375.926,105.653 373.259,106.121 372.037 C 106.590 370.815,107.836 367.981,108.890 365.741 C 109.944 363.500,111.280 360.500,111.859 359.074 C 112.437 357.648,113.236 355.815,113.635 355.000 C 114.033 354.185,115.146 351.685,116.108 349.444 C 119.713 341.048,120.438 339.410,121.136 338.098 C 121.530 337.357,121.852 336.577,121.852 336.365 C 121.852 336.152,123.281 332.758,125.028 328.822 C 129.998 317.625,130.204 317.117,129.895 316.808 C 129.782 316.695,129.509 316.940,129.289 317.351 M0.000 404.074 L 0.000 405.185 200.000 405.185 L 400.000 405.185 400.000 404.074 L 400.000 402.963 200.000 402.963 L 0.000 402.963 0.000 404.074 " stroke="none" fill="#0f0a0a" fill-rule="evenodd"></path><path id="path1" d="M0.000 202.963 L 0.000 402.963 200.000 402.963 L 400.000 402.963 400.000 202.963 L 400.000 2.963 200.000 2.963 L 0.000 2.963 0.000 202.963 M235.370 14.773 C 240.379 15.720,246.452 18.644,249.273 21.467 C 256.073 28.272,257.349 34.463,254.467 46.667 C 253.587 50.394,251.991 54.336,248.168 62.222 C 246.934 64.769,245.371 67.852,244.696 69.074 C 244.020 70.296,242.833 72.463,242.057 73.889 C 241.282 75.315,240.519 76.648,240.363 76.852 C 240.093 77.204,239.608 78.046,237.483 81.852 C 236.972 82.769,235.662 85.002,234.573 86.815 C 233.484 88.628,232.593 90.186,232.593 90.276 C 232.593 90.750,230.993 92.593,230.582 92.593 C 230.289 92.593,230.017 91.910,229.881 90.833 C 227.024 68.247,225.001 53.640,223.918 47.778 C 223.598 46.046,223.231 43.963,223.103 43.148 C 222.889 41.798,221.675 39.259,221.242 39.259 C 220.563 39.259,216.588 49.696,213.342 60.000 C 212.283 63.361,211.121 66.944,210.761 67.963 C 210.400 68.981,209.809 70.815,209.446 72.037 C 209.084 73.259,208.420 75.426,207.971 76.852 C 207.522 78.278,206.694 80.944,206.130 82.778 C 205.567 84.611,204.964 86.444,204.790 86.852 C 204.617 87.259,204.292 88.312,204.069 89.190 C 203.845 90.069,203.021 92.736,202.238 95.116 C 200.913 99.142,200.024 101.940,194.567 119.259 C 193.444 122.824,192.298 126.407,192.021 127.222 C 191.744 128.037,190.833 130.954,189.997 133.704 C 189.161 136.454,188.010 140.120,187.440 141.852 C 186.870 143.583,185.949 146.500,185.394 148.333 C 184.838 150.167,184.001 152.833,183.533 154.259 C 183.065 155.685,182.263 158.185,181.752 159.815 C 180.015 165.349,177.097 174.607,174.805 181.852 C 173.548 185.824,172.102 190.407,171.591 192.037 C 171.080 193.667,170.273 196.167,169.799 197.593 C 169.324 199.019,168.739 201.221,168.497 202.487 L 168.057 204.788 163.428 207.052 C 157.970 209.722,157.709 209.650,159.192 205.889 C 159.786 204.382,160.647 202.065,161.105 200.741 C 161.562 199.417,162.138 197.833,162.385 197.222 C 162.910 195.922,163.337 194.672,166.314 185.741 C 167.536 182.074,168.641 178.824,168.768 178.519 C 168.896 178.213,169.046 177.745,169.100 177.479 C 169.199 177.001,169.583 175.813,171.161 171.111 C 171.605 169.787,172.093 168.204,172.244 167.593 C 172.743 165.577,174.830 158.718,175.174 157.963 C 175.360 157.556,175.680 156.472,175.884 155.556 C 176.089 154.639,176.702 152.306,177.247 150.370 C 178.730 145.102,180.665 137.771,181.890 132.778 C 182.490 130.333,183.135 127.750,183.323 127.037 C 184.420 122.880,186.318 114.611,187.573 108.519 C 188.110 105.913,188.407 104.598,189.223 101.204 C 189.407 100.440,189.724 99.065,189.929 98.148 C 190.133 97.231,190.836 94.148,191.490 91.296 C 192.144 88.444,193.066 84.361,193.540 82.222 C 194.013 80.083,194.979 75.917,195.686 72.963 C 196.392 70.009,197.329 66.093,197.766 64.259 C 198.203 62.426,198.713 60.426,198.898 59.815 C 199.083 59.204,199.508 57.454,199.842 55.926 C 200.430 53.242,201.403 49.676,203.029 44.259 C 203.794 41.707,205.762 36.349,206.892 33.740 C 207.210 33.007,207.705 31.860,207.994 31.191 C 208.282 30.522,208.519 29.786,208.519 29.556 C 208.519 28.594,213.579 21.710,215.872 19.554 C 221.000 14.730,227.160 13.220,235.370 14.773 M221.973 45.093 C 222.091 45.856,222.287 48.231,222.409 50.370 C 222.530 52.509,222.791 55.259,222.990 56.481 C 223.188 57.704,223.690 61.787,224.104 65.556 C 224.825 72.113,225.178 75.067,225.876 80.370 C 226.050 81.694,226.554 85.778,226.995 89.444 C 227.436 93.111,228.043 97.702,228.343 99.646 C 228.643 101.590,228.889 103.690,228.889 104.313 C 228.889 104.935,229.039 105.928,229.222 106.519 C 229.406 107.109,229.818 109.843,230.139 112.593 C 230.459 115.343,230.800 118.259,230.895 119.074 C 230.990 119.889,231.247 121.556,231.467 122.778 C 231.809 124.677,232.558 130.205,234.078 142.037 C 234.261 143.463,234.673 146.296,234.993 148.333 C 235.313 150.370,235.909 154.370,236.316 157.222 C 236.723 160.074,237.234 163.324,237.450 164.444 C 238.358 169.138,238.503 169.939,238.905 172.500 C 239.137 173.977,239.505 175.185,239.723 175.185 C 240.168 175.185,243.856 174.140,245.000 173.690 C 245.407 173.530,247.657 172.781,250.000 172.027 C 252.343 171.272,255.426 170.272,256.852 169.805 C 260.280 168.682,265.646 167.039,272.593 164.986 C 274.324 164.474,276.491 163.827,277.407 163.548 C 279.543 162.898,284.251 161.554,285.926 161.115 C 286.639 160.929,288.139 160.520,289.259 160.208 C 295.894 158.358,298.191 157.778,298.874 157.778 C 299.295 157.778,299.929 157.626,300.283 157.440 C 301.143 156.989,307.490 155.515,318.704 153.164 C 319.926 152.908,322.759 152.418,325.000 152.074 C 327.241 151.731,329.824 151.294,330.741 151.103 C 331.657 150.912,333.324 150.664,334.444 150.551 C 335.565 150.438,337.315 150.194,338.333 150.008 C 346.226 148.570,346.854 148.592,347.887 150.342 C 348.863 151.993,348.038 152.605,343.516 153.584 C 332.994 155.864,329.020 156.780,324.630 157.939 C 318.876 159.458,312.302 161.300,310.000 162.037 C 309.083 162.331,307.417 162.834,306.296 163.156 C 302.935 164.121,298.013 165.650,297.222 165.976 C 296.815 166.144,294.731 166.773,292.593 167.374 C 290.454 167.974,287.370 168.882,285.741 169.390 C 284.111 169.898,281.528 170.678,280.000 171.123 C 278.472 171.568,276.889 172.068,276.481 172.234 C 276.074 172.400,274.074 173.068,272.037 173.717 C 265.726 175.730,261.713 177.087,260.556 177.600 C 259.944 177.871,257.278 178.840,254.630 179.754 C 246.003 182.730,241.453 184.350,241.307 184.496 C 241.166 184.636,242.280 190.432,243.503 195.926 C 243.843 197.454,244.432 200.120,244.813 201.852 C 246.096 207.698,247.006 211.653,247.781 214.752 C 248.205 216.448,248.696 218.532,248.871 219.381 C 249.047 220.231,249.632 222.593,250.171 224.630 C 250.710 226.667,251.297 229.000,251.474 229.815 C 251.652 230.630,252.133 232.546,252.544 234.074 C 254.373 240.883,254.903 242.849,255.192 243.889 C 255.362 244.500,255.844 246.417,256.263 248.148 C 256.683 249.880,257.182 251.880,257.372 252.593 C 257.729 253.926,258.663 257.570,259.319 260.185 C 259.524 261.000,259.917 262.500,260.193 263.519 C 260.470 264.537,260.873 266.037,261.090 266.852 C 261.306 267.667,262.171 270.833,263.012 273.889 C 263.853 276.944,264.754 280.278,265.014 281.296 C 265.275 282.315,266.182 285.398,267.031 288.148 C 267.880 290.898,268.658 293.565,268.759 294.074 C 268.861 294.583,269.094 295.333,269.276 295.741 C 269.458 296.148,270.354 298.898,271.267 301.852 C 272.180 304.806,273.272 308.188,273.694 309.368 C 274.117 310.548,274.698 312.381,274.987 313.442 C 275.276 314.503,275.836 316.287,276.231 317.407 C 276.627 318.528,277.736 321.944,278.696 325.000 C 281.357 333.467,282.226 335.921,283.383 338.230 C 284.575 340.610,284.871 343.704,283.905 343.704 C 282.670 343.704,272.775 325.552,266.946 312.593 C 266.625 311.880,265.689 309.851,264.865 308.084 C 264.041 306.318,262.927 303.818,262.389 302.529 C 261.851 301.240,261.185 299.685,260.909 299.074 C 259.103 295.077,254.815 284.687,254.815 284.309 C 254.815 284.058,254.669 283.694,254.491 283.500 C 254.313 283.306,253.636 281.731,252.988 280.000 C 252.339 278.269,251.582 276.352,251.305 275.741 C 251.029 275.130,250.356 273.380,249.810 271.852 C 246.980 263.926,244.299 256.176,243.531 253.704 C 243.057 252.176,242.155 249.343,241.528 247.407 C 240.357 243.797,239.953 242.488,238.328 237.037 C 237.812 235.306,237.238 233.389,237.053 232.778 C 233.046 219.525,229.363 199.378,229.756 192.870 C 229.896 190.560,229.828 190.000,229.405 190.000 C 228.344 190.000,216.500 194.301,211.918 196.350 C 211.038 196.744,209.111 197.545,207.636 198.131 C 206.162 198.716,203.662 199.793,202.080 200.524 C 200.499 201.254,198.995 201.852,198.738 201.852 C 198.482 201.852,198.174 201.950,198.054 202.070 C 197.492 202.631,186.687 207.361,182.963 208.675 C 177.753 210.513,176.702 211.157,176.269 212.778 C 176.052 213.593,175.208 216.176,174.395 218.519 C 173.582 220.861,171.669 226.429,170.144 230.891 C 167.543 238.504,164.847 245.680,163.313 249.074 C 162.945 249.889,161.985 252.222,161.179 254.259 C 160.374 256.296,158.622 260.669,157.286 263.977 C 154.936 269.798,154.869 270.053,155.200 271.940 C 156.377 278.642,156.470 283.783,155.503 288.704 C 154.720 292.688,153.613 296.968,152.725 299.444 C 152.213 300.870,151.661 302.537,151.497 303.148 C 151.219 304.185,150.258 306.665,148.054 312.037 C 147.552 313.259,146.452 315.701,145.608 317.463 C 144.764 319.225,144.074 320.780,144.074 320.918 C 144.074 321.169,142.164 325.250,138.262 333.333 C 135.885 338.259,130.428 349.553,130.030 350.370 C 129.882 350.676,129.491 351.426,129.161 352.037 C 128.831 352.648,127.491 355.315,126.183 357.963 C 123.651 363.089,116.632 376.886,110.357 389.074 C 108.259 393.148,106.317 396.923,106.041 397.462 C 105.044 399.411,101.827 398.892,102.451 396.882 C 102.875 395.519,107.781 383.584,108.721 381.630 C 109.221 380.591,109.630 379.636,109.630 379.508 C 109.630 379.380,110.192 378.064,110.879 376.582 C 112.722 372.609,113.704 370.314,113.704 369.979 C 113.704 369.693,114.242 368.473,117.211 362.037 C 117.963 360.407,119.216 357.491,119.997 355.556 C 120.777 353.620,122.113 350.537,122.965 348.704 C 123.816 346.870,125.314 343.454,126.292 341.111 C 127.270 338.769,128.855 335.102,129.815 332.963 C 130.774 330.824,132.274 327.324,133.148 325.185 C 134.769 321.218,137.121 315.932,137.829 314.668 C 140.095 310.619,140.229 307.448,138.165 306.728 C 136.419 306.119,135.342 307.123,133.659 310.926 C 132.848 312.759,131.692 315.280,131.092 316.527 C 130.491 317.774,130.000 318.908,130.000 319.047 C 130.000 319.285,129.612 320.194,127.617 324.630 C 127.159 325.648,126.562 327.065,126.290 327.778 C 126.019 328.491,125.492 329.516,125.121 330.057 C 124.749 330.598,124.444 331.205,124.444 331.407 C 124.444 332.024,122.280 337.070,119.647 342.593 C 119.210 343.509,118.367 345.465,117.773 346.940 C 117.179 348.414,116.249 350.580,115.706 351.754 C 114.043 355.351,112.749 358.254,112.032 360.000 C 111.656 360.917,110.378 363.727,109.192 366.245 C 108.007 368.764,107.037 370.974,107.037 371.158 C 107.037 371.341,106.885 371.781,106.699 372.135 C 106.224 373.037,104.752 376.269,103.032 380.185 C 102.227 382.019,101.065 384.602,100.450 385.926 C 99.835 387.250,98.664 389.776,97.847 391.539 C 96.293 394.895,95.507 395.582,94.088 394.822 C 92.795 394.130,93.129 391.989,95.319 386.933 C 96.480 384.251,100.292 374.237,101.411 370.926 C 108.197 350.861,111.213 342.295,112.234 340.185 C 112.431 339.778,112.915 338.528,113.309 337.407 C 114.882 332.939,116.256 329.314,117.359 326.720 C 117.997 325.222,118.519 323.764,118.519 323.480 C 118.519 323.196,118.666 322.963,118.846 322.963 C 119.026 322.963,119.256 322.588,119.357 322.130 C 119.728 320.454,124.070 309.564,124.754 308.593 C 125.384 307.699,127.778 302.559,127.778 302.101 C 127.778 302.000,128.371 300.611,129.096 299.014 C 129.821 297.418,130.726 295.361,131.107 294.444 C 131.488 293.528,132.334 291.528,132.987 290.000 C 134.513 286.429,134.644 286.117,137.592 279.074 C 138.956 275.815,140.473 272.268,140.962 271.193 C 141.451 270.117,141.852 269.145,141.852 269.033 C 141.852 268.856,143.449 265.010,144.450 262.778 C 144.632 262.370,145.213 260.954,145.741 259.630 C 146.268 258.306,146.850 256.889,147.033 256.481 C 148.068 254.185,149.071 251.783,151.284 246.303 C 152.641 242.946,153.966 239.696,154.230 239.081 C 155.194 236.836,159.015 227.143,160.073 224.259 C 160.670 222.630,161.387 220.713,161.666 220.000 C 161.945 219.287,162.270 218.037,162.390 217.222 L 162.607 215.741 161.705 216.820 C 161.208 217.413,160.358 218.806,159.815 219.914 C 158.413 222.778,156.296 227.382,156.296 227.568 C 156.296 227.655,155.783 228.863,155.155 230.252 C 154.528 231.641,153.778 233.303,153.489 233.945 C 153.199 234.587,152.963 235.195,152.963 235.297 C 152.963 235.399,152.296 236.912,151.481 238.659 C 150.667 240.406,150.000 241.932,150.000 242.050 C 150.000 242.238,147.808 247.435,145.943 251.667 C 145.584 252.481,144.161 255.898,142.779 259.259 C 141.398 262.620,139.696 266.704,138.997 268.333 C 138.298 269.963,137.571 271.671,137.381 272.130 C 136.533 274.182,136.313 274.708,135.789 275.926 C 135.483 276.639,134.456 279.139,133.506 281.481 C 132.557 283.824,131.565 286.241,131.301 286.852 C 131.037 287.463,129.579 290.963,128.061 294.630 C 125.857 299.952,125.111 301.390,124.359 301.759 C 123.123 302.367,123.888 300.589,110.937 332.983 C 104.712 348.555,99.454 361.671,99.254 362.130 C 99.053 362.588,98.734 363.338,98.544 363.796 C 98.354 364.255,97.521 366.172,96.692 368.056 C 95.863 369.941,95.185 371.699,95.185 371.963 C 95.185 372.228,95.045 372.603,94.874 372.796 C 94.703 372.990,94.345 373.731,94.078 374.444 C 93.811 375.157,93.383 376.241,93.126 376.852 C 92.869 377.463,91.540 380.796,90.172 384.259 C 87.280 391.579,86.393 392.636,84.624 390.867 C 84.013 390.256,84.023 390.004,84.762 387.407 C 85.322 385.439,93.148 363.190,94.076 360.926 C 94.327 360.315,94.661 359.315,94.819 358.704 C 94.976 358.093,95.725 355.926,96.483 353.889 C 97.240 351.852,98.519 348.352,99.326 346.111 C 100.132 343.870,101.185 340.954,101.666 339.630 C 102.147 338.306,103.532 334.389,104.743 330.926 C 105.954 327.463,107.402 323.546,107.961 322.222 C 108.520 320.898,109.196 319.065,109.462 318.148 C 109.946 316.482,111.720 311.541,112.586 309.444 C 116.463 300.063,116.596 297.037,113.130 297.037 C 111.521 297.037,111.193 297.542,109.274 302.963 C 108.445 305.306,107.620 307.556,107.441 307.963 C 106.300 310.565,105.185 313.442,105.185 313.784 C 105.185 314.202,103.983 317.578,101.257 324.815 C 100.374 327.157,99.056 330.741,98.328 332.778 C 97.599 334.815,96.251 338.481,95.332 340.926 C 94.413 343.370,93.278 346.454,92.809 347.778 C 92.340 349.102,91.334 351.852,90.573 353.889 C 88.229 360.162,86.644 364.570,86.245 365.926 C 86.035 366.639,84.727 370.139,83.338 373.704 C 81.950 377.269,80.201 381.810,79.452 383.796 C 78.315 386.813,77.937 387.446,77.160 387.641 C 75.620 388.028,74.690 386.797,75.144 384.973 C 75.956 381.709,76.712 379.032,77.019 378.333 C 77.198 377.926,77.515 376.926,77.724 376.111 C 78.484 373.142,79.562 369.422,79.923 368.519 C 80.127 368.009,80.749 365.926,81.305 363.889 C 81.861 361.852,82.608 359.269,82.963 358.148 C 83.319 357.028,83.880 355.194,84.209 354.074 C 84.538 352.954,85.238 350.620,85.765 348.889 C 86.291 347.157,87.148 344.324,87.669 342.593 C 89.218 337.445,90.386 333.678,91.286 330.926 C 91.752 329.500,92.739 326.417,93.480 324.074 C 102.790 294.620,112.004 272.061,115.238 270.802 C 115.413 270.735,115.556 270.525,115.556 270.336 C 115.556 268.695,128.121 257.778,130.010 257.778 C 130.208 257.778,130.371 257.653,130.371 257.500 C 130.372 257.347,131.300 256.737,132.434 256.145 C 138.289 253.086,143.430 245.106,149.994 228.889 C 150.859 226.750,151.814 224.520,152.115 223.933 C 152.848 222.503,151.960 222.714,147.930 224.926 C 146.318 225.811,143.083 227.543,140.741 228.775 C 137.034 230.725,135.085 231.782,132.061 233.485 C 131.667 233.707,128.000 236.129,123.913 238.867 C 119.826 241.605,114.731 244.838,112.593 246.051 C 110.454 247.265,107.870 248.730,106.852 249.307 C 102.909 251.542,103.891 249.604,108.471 246.111 C 110.415 244.629,110.648 244.289,110.000 243.889 C 109.152 243.365,109.615 241.270,110.833 240.118 C 112.269 238.759,118.099 234.438,118.889 234.147 C 119.194 234.035,119.528 233.822,119.630 233.674 C 119.871 233.323,128.518 227.973,129.313 227.683 C 129.648 227.561,131.650 226.392,133.763 225.086 C 140.033 221.211,144.651 218.743,157.474 212.415 C 170.271 206.101,169.834 206.685,175.444 188.333 C 175.755 187.315,176.729 184.231,177.607 181.481 C 178.486 178.731,180.320 172.981,181.684 168.704 C 183.048 164.426,185.130 157.926,186.311 154.259 C 187.492 150.593,189.564 144.093,190.915 139.815 C 192.267 135.537,193.697 131.037,194.093 129.815 C 194.490 128.593,195.381 125.843,196.075 123.704 C 197.216 120.183,199.994 111.408,201.937 105.185 C 202.351 103.861,203.145 101.361,203.702 99.630 C 204.259 97.898,205.349 94.481,206.124 92.037 C 206.899 89.593,208.321 85.176,209.283 82.222 C 210.246 79.269,211.901 74.102,212.963 70.741 C 214.024 67.380,215.273 63.463,215.737 62.037 C 216.202 60.611,216.871 58.444,217.225 57.222 C 217.578 56.000,218.166 54.083,218.531 52.963 C 218.896 51.843,219.468 49.759,219.801 48.333 C 220.906 43.603,221.584 42.591,221.973 45.093 M217.979 114.815 C 217.387 115.731,216.721 116.815,216.498 117.222 C 215.836 118.429,212.717 123.643,210.515 127.222 C 207.200 132.612,205.319 136.285,204.256 139.444 C 203.708 141.074,203.115 142.741,202.938 143.148 C 202.761 143.556,202.088 145.472,201.443 147.407 C 200.797 149.343,199.782 152.259,199.188 153.889 C 198.593 155.519,197.797 157.769,197.419 158.889 C 197.040 160.009,195.876 163.259,194.832 166.111 C 193.788 168.963,192.427 172.796,191.807 174.630 C 190.457 178.625,187.113 188.034,186.673 189.074 C 185.766 191.220,184.382 195.552,184.497 195.885 C 184.572 196.102,186.314 195.544,188.519 194.595 C 197.495 190.735,204.094 188.003,207.222 186.852 C 215.851 183.677,226.864 179.547,226.969 179.446 C 227.033 179.384,226.899 178.109,226.670 176.611 C 226.290 174.126,225.757 170.041,224.842 162.593 C 224.654 161.065,224.229 157.648,223.896 155.000 C 223.132 148.912,222.758 145.671,222.233 140.556 C 222.003 138.315,221.667 135.648,221.486 134.630 C 221.179 132.904,219.950 122.257,219.327 115.926 L 219.054 113.148 217.979 114.815 " stroke="none" fill="#fbfbfb" fill-rule="evenodd"></path><path id="path2" d="M220.025 49.722 C 218.459 55.477,216.661 61.270,210.743 79.630 C 208.741 85.843,206.075 94.176,204.820 98.148 C 203.565 102.120,202.321 106.037,202.054 106.852 C 201.788 107.667,201.233 109.417,200.820 110.741 C 200.132 112.950,197.022 122.731,193.814 132.778 C 193.098 135.019,192.126 138.019,191.654 139.444 C 191.183 140.870,189.769 145.287,188.514 149.259 C 187.258 153.231,185.001 160.315,183.498 165.000 C 181.996 169.685,180.332 174.935,179.802 176.667 C 179.272 178.398,178.704 180.148,178.539 180.556 C 178.374 180.963,177.701 183.046,177.043 185.185 C 175.561 190.001,173.150 197.597,172.163 200.556 C 170.192 206.467,169.109 207.318,153.889 214.908 C 148.389 217.650,143.007 220.418,141.928 221.058 C 140.850 221.698,139.900 222.222,139.818 222.222 C 139.736 222.222,137.619 223.442,135.112 224.934 C 132.606 226.425,128.889 228.620,126.852 229.812 C 118.289 234.821,110.537 240.505,110.146 242.060 C 109.813 243.388,111.593 245.100,112.313 244.144 C 112.572 243.800,113.222 243.269,113.758 242.963 C 114.945 242.286,123.696 236.454,124.377 235.886 C 125.327 235.094,130.808 231.481,131.059 231.481 C 131.199 231.481,132.143 230.936,133.157 230.269 C 134.170 229.601,135.824 228.669,136.830 228.196 C 137.837 227.724,139.186 226.936,139.828 226.446 C 140.470 225.956,141.209 225.556,141.471 225.556 C 141.732 225.556,143.216 224.894,144.769 224.085 C 148.703 222.036,154.630 219.259,155.070 219.259 C 155.430 219.259,159.116 217.439,160.537 216.559 C 160.935 216.312,161.533 215.793,161.866 215.404 C 163.111 213.952,163.730 215.566,162.908 218.122 C 162.253 220.160,159.596 227.458,159.056 228.704 C 158.791 229.315,156.995 233.731,155.066 238.519 C 151.466 247.448,149.833 251.438,147.787 256.296 C 147.144 257.824,145.901 260.824,145.025 262.963 C 142.801 268.391,136.462 283.471,135.372 285.926 C 134.874 287.046,133.451 290.380,132.210 293.333 C 130.969 296.287,129.477 299.787,128.894 301.111 C 128.312 302.435,127.387 304.602,126.838 305.926 C 126.290 307.250,125.535 308.765,125.160 309.292 C 124.593 310.091,120.480 320.224,116.079 331.667 C 115.530 333.093,114.855 334.784,114.578 335.426 C 114.301 336.068,114.074 336.745,114.074 336.931 C 114.074 337.116,113.741 337.958,113.333 338.801 C 112.926 339.645,112.593 340.471,112.593 340.639 C 112.593 340.806,112.075 342.272,111.442 343.897 C 109.234 349.569,100.725 374.543,100.930 374.753 C 101.487 375.327,105.973 367.320,109.818 358.889 C 110.608 357.157,111.480 355.469,111.756 355.136 C 112.032 354.804,112.430 353.887,112.641 353.099 C 112.852 352.311,113.477 351.083,114.030 350.370 C 114.583 349.657,115.241 348.373,115.491 347.517 C 115.741 346.660,116.150 345.743,116.400 345.480 C 116.650 345.216,117.254 344.083,117.742 342.963 C 118.231 341.843,119.592 338.926,120.767 336.481 C 124.584 328.542,125.926 325.579,125.926 325.090 C 125.926 324.386,127.036 322.918,127.398 323.142 C 127.569 323.248,127.624 323.011,127.521 322.617 C 127.418 322.222,127.661 321.264,128.062 320.487 C 128.463 319.710,128.950 318.574,129.145 317.963 C 129.339 317.352,129.715 316.900,129.980 316.960 C 130.279 317.027,130.378 316.851,130.241 316.493 C 129.928 315.677,130.692 313.766,131.080 314.394 C 131.436 314.970,132.593 312.329,132.593 310.940 C 132.593 310.447,132.757 309.942,132.959 309.817 C 133.172 309.685,133.238 309.869,133.116 310.259 C 132.919 310.889,132.930 310.889,133.325 310.275 C 133.556 309.917,133.637 309.450,133.506 309.239 C 133.375 309.027,133.705 308.416,134.239 307.882 C 134.815 307.306,135.055 306.815,134.829 306.675 C 134.587 306.526,134.770 305.769,135.327 304.609 C 136.491 302.187,137.853 299.249,139.182 296.296 C 139.777 294.972,141.350 291.639,142.678 288.889 C 145.976 282.054,147.409 278.938,147.959 277.407 C 148.214 276.694,148.862 275.205,149.397 274.097 C 149.932 272.990,150.370 271.946,150.370 271.778 C 150.370 271.454,151.241 269.425,152.999 265.656 C 153.590 264.387,154.074 262.996,154.074 262.565 C 154.074 262.134,154.320 261.339,154.620 260.798 C 155.266 259.634,157.778 253.135,157.778 252.626 C 157.778 252.433,158.278 251.194,158.889 249.873 C 159.500 248.553,160.000 247.213,160.000 246.895 C 160.000 246.577,160.396 245.437,160.879 244.362 C 162.314 241.172,163.609 238.026,163.894 237.037 C 164.041 236.528,164.539 235.361,165.001 234.444 C 165.462 233.528,166.010 232.278,166.217 231.667 C 166.424 231.056,167.289 228.806,168.137 226.667 C 168.986 224.528,169.829 222.194,170.010 221.481 C 170.190 220.769,170.987 218.594,171.781 216.648 C 172.574 214.703,173.334 212.521,173.469 211.800 C 173.792 210.077,178.843 206.296,180.823 206.296 C 181.437 206.296,184.964 204.671,195.556 199.507 C 203.354 195.705,213.645 191.111,214.362 191.111 C 214.606 191.111,216.200 190.534,217.903 189.829 C 219.606 189.124,221.650 188.389,222.444 188.195 C 223.239 188.001,224.803 187.494,225.921 187.069 C 231.506 184.945,232.431 186.340,233.686 198.777 C 233.895 200.855,234.228 203.272,234.425 204.148 C 234.623 205.024,235.042 207.074,235.357 208.704 C 235.673 210.333,236.189 212.995,236.504 214.619 C 236.819 216.242,237.583 219.409,238.200 221.656 C 238.818 223.902,239.543 226.824,239.810 228.148 C 240.078 229.472,240.741 231.972,241.283 233.704 C 241.825 235.435,242.831 238.685,243.518 240.926 C 245.651 247.883,248.087 255.690,248.487 256.852 C 249.544 259.921,251.242 264.874,251.917 266.852 C 252.333 268.074,253.013 269.907,253.428 270.926 C 253.843 271.944,254.395 273.528,254.655 274.444 C 254.915 275.361,255.888 278.111,256.818 280.556 C 257.749 283.000,258.512 285.206,258.514 285.457 C 258.516 285.708,259.092 287.125,259.793 288.605 C 260.494 290.085,261.340 292.201,261.674 293.307 C 262.007 294.412,262.581 295.996,262.949 296.825 C 263.316 297.655,263.970 299.123,264.401 300.089 C 264.832 301.054,265.185 301.934,265.185 302.043 C 265.185 302.153,265.769 303.423,266.481 304.866 C 267.194 306.308,267.778 307.671,267.778 307.894 C 267.778 308.117,268.528 309.841,269.444 311.725 C 270.361 313.610,271.111 315.219,271.111 315.302 C 271.111 316.200,279.004 331.211,279.577 331.402 C 280.164 331.598,280.298 332.126,277.526 323.333 C 274.459 313.607,273.775 311.479,271.569 304.815 C 270.456 301.454,269.415 298.204,269.255 297.593 C 269.094 296.981,268.375 294.565,267.656 292.222 C 265.696 285.837,263.041 276.624,261.838 272.037 C 260.722 267.784,255.906 249.208,252.620 236.481 C 251.567 232.407,250.383 227.824,249.988 226.296 C 249.118 222.934,245.981 209.750,244.832 204.630 C 244.376 202.593,243.695 199.593,243.319 197.963 C 242.944 196.333,242.377 193.667,242.059 192.037 C 241.741 190.407,241.251 188.029,240.970 186.753 C 240.510 184.661,240.519 184.397,241.063 184.079 C 241.609 183.760,241.605 183.725,241.019 183.715 C 239.624 183.691,240.517 183.004,243.855 181.534 C 245.772 180.690,247.456 180.000,247.599 180.000 C 247.741 180.000,248.881 179.536,250.132 178.970 C 251.384 178.403,253.741 177.466,255.370 176.888 C 257.000 176.309,260.167 175.188,262.407 174.395 C 264.648 173.603,267.007 172.706,267.649 172.403 C 268.290 172.100,268.995 171.852,269.215 171.852 C 269.640 171.852,274.871 170.183,276.111 169.651 C 277.085 169.234,278.381 168.810,282.407 167.590 C 284.241 167.035,286.324 166.368,287.037 166.108 C 287.750 165.848,289.083 165.432,290.000 165.184 C 292.615 164.477,297.429 162.934,299.259 162.216 C 300.176 161.856,301.509 161.441,302.222 161.294 C 302.935 161.146,304.185 160.813,305.000 160.553 C 315.361 157.254,323.011 155.068,327.593 154.097 C 328.407 153.924,329.574 153.610,330.185 153.397 C 331.921 152.795,336.729 151.842,338.007 151.847 C 338.643 151.850,340.206 151.519,341.481 151.111 C 342.757 150.704,344.269 150.370,344.841 150.370 C 345.414 150.370,346.001 150.179,346.145 149.945 C 346.337 149.634,345.870 149.584,344.408 149.762 C 339.192 150.393,333.342 151.187,331.667 151.491 C 330.648 151.676,328.148 152.095,326.111 152.422 C 319.389 153.501,304.449 156.742,297.222 158.689 C 296.204 158.963,293.037 159.807,290.185 160.563 C 279.473 163.404,263.172 168.330,246.088 173.891 C 240.521 175.703,238.890 176.143,238.888 175.833 C 238.888 175.782,238.629 174.324,238.313 172.593 C 237.648 168.953,237.399 167.460,236.158 159.630 C 234.745 150.720,233.694 143.466,232.614 135.185 C 232.012 130.576,231.110 124.037,230.723 121.481 C 230.522 120.157,230.014 116.491,229.593 113.333 C 229.173 110.176,228.605 105.926,228.331 103.889 C 227.129 94.947,224.343 73.132,223.885 69.074 C 223.140 62.477,222.644 58.293,222.238 55.185 C 222.038 53.657,221.867 51.491,221.858 50.370 C 221.822 45.835,221.148 45.597,220.025 49.722 M219.569 92.130 C 219.754 92.486,220.017 93.611,220.154 94.630 C 220.291 95.648,220.799 98.565,221.283 101.111 C 222.348 106.713,223.580 115.101,223.895 118.889 C 224.022 120.417,224.353 123.083,224.630 124.815 C 224.907 126.546,225.392 130.380,225.708 133.333 C 226.024 136.287,226.373 139.537,226.483 140.556 C 226.593 141.574,226.901 144.741,227.167 147.593 C 227.433 150.444,227.841 153.361,228.073 154.074 C 228.306 154.787,228.670 157.287,228.882 159.630 C 229.094 161.972,229.418 165.139,229.602 166.667 C 229.786 168.194,230.055 171.697,230.199 174.450 L 230.461 179.456 229.429 180.006 C 228.607 180.444,228.365 180.458,228.237 180.077 C 228.134 179.771,227.923 179.721,227.649 179.939 C 227.414 180.126,226.389 180.532,225.370 180.842 C 218.138 183.041,199.215 190.454,188.519 195.279 C 185.015 196.859,183.766 197.347,183.615 197.195 C 183.529 197.109,183.225 197.473,182.941 198.005 C 181.783 200.169,179.630 199.851,179.630 197.517 C 179.630 196.347,181.084 191.350,181.821 189.988 C 181.990 189.676,182.248 188.873,182.395 188.204 C 182.542 187.535,182.896 186.540,183.181 185.994 C 183.466 185.447,183.700 184.775,183.701 184.500 C 183.703 184.226,183.938 183.476,184.224 182.834 C 184.510 182.192,185.164 180.409,185.678 178.872 C 186.661 175.932,187.628 173.279,188.170 172.037 C 188.348 171.630,188.764 170.213,189.095 168.889 C 189.426 167.565,190.098 165.632,190.589 164.594 C 191.080 163.556,191.481 162.414,191.481 162.057 C 191.481 161.700,191.715 160.883,192.001 160.241 C 192.517 159.083,193.659 155.937,195.113 151.667 C 195.529 150.444,196.445 147.861,197.149 145.926 C 197.853 143.991,198.717 141.574,199.070 140.556 C 199.423 139.537,200.032 137.870,200.423 136.852 C 201.407 134.290,203.979 127.085,205.187 123.509 C 205.739 121.874,206.465 120.008,206.799 119.361 C 207.134 118.714,207.413 117.885,207.420 117.518 C 207.427 117.152,207.755 116.185,208.148 115.370 C 208.542 114.556,208.869 113.673,208.876 113.408 C 208.883 113.144,209.235 112.227,209.659 111.371 C 210.082 110.515,210.852 108.565,211.369 107.037 C 211.887 105.509,212.518 103.843,212.772 103.333 C 213.772 101.327,214.815 98.849,214.815 98.478 C 214.815 96.873,217.846 91.481,218.748 91.481 C 219.015 91.481,219.384 91.773,219.569 92.130 " stroke="none" fill="#b20c0e" fill-rule="evenodd"></path><path id="path3" d="M227.685 14.717 C 228.755 14.792,230.505 14.792,231.574 14.717 C 232.644 14.643,231.769 14.581,229.630 14.581 C 227.491 14.581,226.616 14.643,227.685 14.717 M221.787 15.720 C 213.310 19.242,207.091 29.529,201.846 48.704 C 200.996 51.809,199.576 57.283,199.250 58.704 C 198.816 60.600,197.985 64.018,197.270 66.852 C 196.079 71.573,193.390 83.211,191.879 90.185 C 191.437 92.222,190.673 95.556,190.181 97.593 C 189.689 99.630,188.927 102.963,188.488 105.000 C 186.527 114.098,185.393 119.140,184.448 122.963 C 184.271 123.676,183.856 125.426,183.526 126.852 C 182.788 130.029,182.403 131.593,181.884 133.519 C 179.735 141.482,178.144 147.897,178.282 148.035 C 178.375 148.128,178.532 147.900,178.632 147.528 C 178.732 147.156,179.263 145.102,179.813 142.963 C 180.363 140.824,181.034 138.324,181.304 137.407 C 181.574 136.491,182.399 133.241,183.137 130.185 C 183.875 127.130,184.807 123.296,185.207 121.667 C 185.606 120.037,186.081 117.954,186.261 117.037 C 186.713 114.734,190.125 99.588,191.309 94.630 C 191.844 92.389,192.426 89.806,192.603 88.889 C 192.948 87.093,193.105 86.399,194.826 79.074 C 195.806 74.900,196.528 71.775,197.778 66.296 C 198.064 65.039,201.977 49.831,202.590 47.593 C 205.001 38.784,209.270 28.431,211.983 24.815 C 215.853 19.655,218.674 17.343,223.107 15.695 C 224.352 15.232,225.037 14.852,224.630 14.850 C 224.222 14.848,222.943 15.239,221.787 15.720 M234.630 15.033 C 255.607 20.549,260.420 33.266,250.298 56.437 C 249.508 58.246,248.946 59.810,249.050 59.914 C 249.154 60.018,249.402 59.673,249.602 59.148 C 249.801 58.622,250.462 57.129,251.070 55.829 C 251.678 54.529,252.295 52.977,252.442 52.381 C 252.589 51.784,253.029 50.546,253.419 49.630 C 255.926 43.744,256.546 34.231,254.714 29.751 C 252.131 23.436,243.616 15.926,239.038 15.926 C 238.630 15.926,238.131 15.761,237.929 15.559 C 237.728 15.357,236.736 15.113,235.726 15.015 C 234.715 14.918,234.222 14.926,234.630 15.033 M220.438 39.537 C 218.809 41.830,216.251 49.013,209.460 70.370 C 208.585 73.120,207.618 76.204,207.310 77.222 C 206.560 79.706,203.567 89.158,199.746 101.111 C 195.608 114.057,194.448 117.725,192.601 123.704 C 191.751 126.454,190.828 129.370,190.549 130.185 C 190.271 131.000,189.273 134.167,188.332 137.222 C 187.391 140.278,186.474 143.194,186.295 143.704 C 186.115 144.213,185.446 146.380,184.807 148.519 C 184.168 150.657,183.505 152.741,183.335 153.148 C 183.164 153.556,182.944 154.222,182.844 154.630 C 182.623 155.540,175.762 177.168,173.465 184.198 C 172.544 187.016,171.872 189.403,171.972 189.503 C 172.072 189.603,173.267 186.214,174.628 181.972 C 175.989 177.730,177.322 173.593,177.589 172.778 C 177.857 171.963,178.699 169.296,179.460 166.852 C 180.221 164.407,181.139 161.491,181.501 160.370 C 181.863 159.250,183.102 155.333,184.254 151.667 C 185.406 148.000,187.240 142.167,188.330 138.704 C 189.419 135.241,190.843 130.657,191.493 128.519 C 192.143 126.380,192.815 124.296,192.986 123.889 C 193.157 123.481,193.817 121.398,194.452 119.259 C 195.510 115.698,197.908 108.136,202.614 93.519 C 204.389 88.003,206.727 80.513,208.337 75.185 C 213.570 57.862,220.218 39.259,221.175 39.259 C 221.899 39.259,222.846 41.640,223.481 45.060 C 224.237 49.125,224.920 51.574,224.602 49.074 C 224.103 45.156,223.115 41.162,222.335 39.907 C 221.304 38.248,221.348 38.256,220.438 39.537 M220.741 45.926 C 220.741 46.333,220.895 46.667,221.084 46.667 C 221.273 46.667,221.503 46.958,221.597 47.315 C 221.690 47.671,221.785 47.338,221.809 46.574 C 221.840 45.567,221.699 45.185,221.296 45.185 C 220.988 45.185,220.741 45.514,220.741 45.926 M224.901 51.852 C 224.903 53.486,225.455 55.914,225.490 54.444 C 225.503 53.935,225.375 52.852,225.206 52.037 L 224.900 50.556 224.901 51.852 M225.629 56.667 C 225.619 57.380,225.744 58.713,225.907 59.630 C 226.182 61.173,226.205 61.201,226.222 60.000 C 226.233 59.287,226.108 57.954,225.945 57.037 C 225.670 55.493,225.647 55.466,225.629 56.667 M247.459 62.608 C 246.778 63.848,246.303 64.945,246.404 65.046 C 246.636 65.278,248.935 61.065,248.799 60.657 C 248.744 60.490,248.141 61.369,247.459 62.608 M226.296 62.163 C 226.296 62.606,226.531 64.592,226.818 66.577 C 227.105 68.561,227.460 71.185,227.608 72.407 C 227.756 73.630,227.955 74.410,228.051 74.143 C 228.147 73.875,227.857 70.958,227.407 67.661 C 226.634 62.000,226.296 60.330,226.296 62.163 M244.631 68.066 C 243.840 69.435,242.798 71.289,242.317 72.185 C 240.562 75.457,233.543 87.615,231.977 90.096 C 231.471 90.896,231.153 91.647,231.270 91.763 C 231.544 92.038,231.522 92.070,233.039 89.259 C 233.754 87.935,235.382 85.102,236.658 82.963 C 240.035 77.302,246.362 65.869,246.206 65.712 C 246.132 65.638,245.423 66.697,244.631 68.066 M228.287 77.593 C 228.562 80.566,229.133 84.832,229.647 87.747 C 229.841 88.850,230.000 90.299,230.000 90.966 C 230.000 91.633,230.178 92.288,230.395 92.423 C 231.004 92.799,231.205 92.370,230.775 91.610 C 230.421 90.985,229.802 86.818,228.830 78.521 C 228.383 74.703,227.951 73.965,228.287 77.593 M215.846 117.267 C 214.099 120.094,212.111 123.381,211.427 124.570 C 210.744 125.760,209.913 127.177,209.579 127.719 C 206.461 132.790,204.701 136.469,202.816 141.852 C 198.344 154.627,195.945 161.420,194.643 165.000 C 193.903 167.037,192.985 169.620,192.604 170.741 C 192.223 171.861,191.135 174.944,190.186 177.593 C 189.236 180.241,187.814 184.241,187.024 186.481 C 186.234 188.722,185.077 191.960,184.452 193.677 C 183.828 195.394,183.451 196.933,183.616 197.097 C 183.781 197.262,183.931 197.108,183.951 196.754 C 183.970 196.400,184.359 195.111,184.815 193.889 C 185.887 191.013,188.724 183.006,190.917 176.667 C 191.868 173.917,192.787 171.333,192.960 170.926 C 193.133 170.519,193.688 169.019,194.195 167.593 C 198.656 155.037,199.898 151.513,202.032 145.370 C 205.243 136.128,205.405 135.724,206.884 133.285 C 207.579 132.138,208.148 131.119,208.148 131.020 C 208.148 130.922,209.981 127.811,212.222 124.107 C 214.463 120.404,216.296 117.309,216.296 117.230 C 216.296 116.888,218.653 113.333,218.880 113.333 C 219.018 113.333,219.334 115.208,219.583 117.500 C 219.831 119.792,220.264 123.500,220.546 125.741 C 220.827 127.981,221.176 130.981,221.320 132.407 C 221.464 133.833,221.655 134.795,221.745 134.545 C 221.835 134.295,221.641 131.795,221.314 128.989 C 220.988 126.184,220.464 121.582,220.151 118.764 C 219.311 111.207,219.541 111.286,215.846 117.267 M221.931 136.667 C 221.923 137.583,222.047 139.167,222.205 140.185 L 222.494 142.037 222.516 140.185 C 222.528 139.167,222.404 137.583,222.241 136.667 L 221.945 135.000 221.931 136.667 M222.640 142.593 C 222.598 143.155,222.820 145.163,223.889 153.889 C 224.214 156.537,224.621 159.954,224.794 161.481 C 225.699 169.455,226.724 177.015,227.074 178.293 C 227.383 179.422,227.362 179.808,226.975 180.080 C 226.584 180.355,226.596 180.394,227.037 180.268 C 227.698 180.080,227.695 179.957,226.902 174.259 C 225.968 167.540,225.613 164.832,225.373 162.593 C 225.253 161.472,225.002 159.472,224.816 158.148 C 224.631 156.824,224.211 153.324,223.884 150.370 C 223.301 145.107,222.723 141.491,222.640 142.593 M176.710 152.824 C 176.038 155.243,175.186 158.222,174.816 159.444 C 174.447 160.667,173.693 163.167,173.142 165.000 C 172.590 166.833,171.763 169.500,171.305 170.926 C 170.847 172.352,170.176 174.519,169.814 175.741 C 169.452 176.963,169.026 178.296,168.869 178.704 C 167.864 181.300,165.535 188.642,165.628 188.920 C 165.773 189.351,169.927 176.969,172.411 168.704 C 172.962 166.870,173.630 164.704,173.897 163.889 C 174.407 162.330,175.653 158.121,176.254 155.926 C 176.449 155.213,176.962 153.400,177.393 151.896 C 177.825 150.393,178.122 148.997,178.055 148.794 C 177.987 148.592,177.382 150.405,176.710 152.824 M345.493 149.525 C 347.002 149.812,348.288 151.493,347.412 152.034 C 346.844 152.385,343.210 153.283,339.875 153.897 C 334.237 154.935,332.877 155.234,328.750 156.344 C 326.484 156.954,323.380 157.764,321.852 158.144 C 320.324 158.525,317.574 159.281,315.741 159.825 C 308.866 161.864,307.058 162.386,305.000 162.925 C 304.389 163.085,302.889 163.569,301.667 163.999 C 300.444 164.430,297.194 165.441,294.444 166.247 C 280.387 170.367,267.977 174.397,268.313 174.733 C 268.463 174.883,274.276 173.004,276.111 172.212 C 276.519 172.036,278.019 171.559,279.444 171.152 C 283.371 170.031,294.032 166.824,299.444 165.135 C 304.359 163.602,307.014 162.808,308.333 162.476 C 308.741 162.374,310.491 161.852,312.222 161.316 C 315.126 160.419,324.371 157.900,330.556 156.322 C 331.981 155.958,334.481 155.390,336.111 155.059 C 342.746 153.710,346.526 152.841,347.315 152.482 C 348.273 152.046,348.494 150.370,347.593 150.370 C 347.287 150.370,347.037 150.120,347.037 149.815 C 347.037 149.425,346.679 149.274,345.833 149.310 C 344.912 149.348,344.832 149.399,345.493 149.525 M262.963 176.155 C 257.615 178.122,257.360 178.225,257.491 178.356 C 257.558 178.423,259.942 177.663,262.788 176.667 C 265.634 175.671,267.630 174.857,267.222 174.858 C 266.815 174.859,264.898 175.443,262.963 176.155 M252.222 179.988 C 250.083 180.778,246.798 181.957,244.921 182.606 C 243.045 183.256,241.211 184.027,240.847 184.321 C 240.244 184.808,240.260 184.819,241.034 184.444 C 241.500 184.217,243.084 183.640,244.552 183.160 C 246.917 182.389,252.208 180.484,255.926 179.065 C 256.639 178.793,256.972 178.566,256.667 178.560 C 256.361 178.554,254.361 179.197,252.222 179.988 M227.593 189.826 C 226.778 190.119,225.309 190.629,224.328 190.958 C 223.347 191.288,222.619 191.631,222.710 191.722 C 222.801 191.813,224.417 191.380,226.302 190.759 C 228.186 190.138,229.789 189.630,229.864 189.630 C 229.939 189.630,230.019 190.338,230.043 191.204 L 230.085 192.778 230.373 191.296 C 230.810 189.050,230.379 188.822,227.593 189.826 M164.151 192.679 C 163.521 194.363,162.143 198.157,161.090 201.111 C 160.036 204.065,158.928 206.962,158.626 207.549 C 157.649 209.453,158.712 209.319,163.349 206.953 C 167.390 204.892,167.729 204.636,167.944 203.489 C 168.072 202.807,169.001 199.702,170.008 196.588 C 171.658 191.489,172.149 189.579,171.695 190.033 C 171.527 190.201,169.292 197.336,168.005 201.813 C 167.572 203.319,166.969 204.692,166.664 204.863 C 164.885 205.864,159.117 208.500,158.989 208.371 C 158.904 208.287,159.597 206.291,160.529 203.937 C 161.460 201.582,162.225 199.524,162.228 199.365 C 162.231 199.205,162.983 197.007,163.899 194.480 C 164.815 191.953,165.504 189.825,165.430 189.751 C 165.357 189.678,164.781 190.995,164.151 192.679 M220.185 192.474 C 219.370 192.796,214.870 194.636,210.185 196.563 C 202.383 199.772,200.447 200.589,197.222 202.032 C 193.232 203.818,191.559 204.552,190.782 204.858 C 190.295 205.049,189.981 205.290,190.083 205.392 C 190.186 205.494,191.345 205.080,192.660 204.472 C 197.150 202.394,215.427 194.683,219.609 193.103 C 220.922 192.607,222.075 192.122,222.171 192.026 C 222.496 191.702,221.674 191.887,220.185 192.474 M229.630 193.948 C 229.630 195.674,230.449 202.869,230.762 203.889 C 231.099 204.988,231.101 204.986,230.939 203.704 C 230.849 202.991,230.586 200.407,230.355 197.963 C 229.975 193.943,229.630 192.033,229.630 193.948 M231.162 206.132 C 231.116 207.158,233.103 217.079,233.531 217.963 C 233.835 218.591,233.406 215.948,232.450 211.296 C 231.947 208.852,231.463 206.435,231.374 205.926 C 231.231 205.107,231.206 205.131,231.162 206.132 M187.407 206.387 C 186.491 206.810,184.491 207.606,182.963 208.156 C 177.112 210.261,176.324 210.732,175.878 212.387 C 175.656 213.213,175.338 214.222,175.171 214.630 C 174.908 215.273,173.219 220.271,172.730 221.852 C 172.635 222.157,172.807 221.976,173.111 221.449 C 173.746 220.349,176.296 212.800,176.296 212.020 C 176.296 211.496,177.768 210.564,179.815 209.794 C 186.595 207.242,188.440 206.498,189.064 206.064 C 190.101 205.342,189.357 205.488,187.407 206.387 M160.339 217.888 C 159.324 219.584,155.758 227.329,152.887 234.074 C 151.889 236.417,150.845 238.833,150.567 239.444 C 150.111 240.443,148.415 244.464,143.469 256.266 C 142.580 258.387,141.931 260.202,142.027 260.298 C 142.123 260.394,142.354 260.075,142.539 259.588 C 142.992 258.403,146.606 249.733,147.231 248.333 C 147.944 246.735,152.156 236.911,153.345 234.074 C 153.900 232.750,154.774 230.750,155.288 229.630 C 155.801 228.509,157.082 225.676,158.134 223.333 C 159.185 220.991,160.375 218.511,160.778 217.824 C 161.182 217.136,161.457 216.519,161.391 216.452 C 161.324 216.386,160.851 217.032,160.339 217.888 M233.704 218.952 C 233.704 219.552,236.652 231.125,237.037 232.037 C 237.209 232.444,237.454 233.278,237.581 233.889 C 238.072 236.250,243.169 252.695,244.814 257.222 C 245.183 258.241,245.757 259.991,246.089 261.111 C 246.421 262.231,246.927 263.731,247.214 264.444 C 247.501 265.157,248.507 267.824,249.449 270.370 C 252.759 279.312,255.842 287.102,258.227 292.546 C 258.617 293.437,259.241 294.937,259.613 295.880 C 259.986 296.822,260.826 298.759,261.481 300.185 C 262.137 301.611,262.970 303.528,263.333 304.444 C 264.610 307.665,275.047 329.259,275.327 329.259 C 275.434 329.259,275.140 328.468,274.674 327.500 C 273.853 325.797,272.139 322.221,267.883 313.333 C 260.678 298.287,250.930 274.237,245.815 258.889 C 243.104 250.753,239.294 238.697,238.383 235.370 C 236.028 226.775,235.172 223.558,234.612 221.204 C 234.017 218.700,233.704 217.923,233.704 218.952 M148.309 224.123 C 138.105 229.365,130.499 233.758,123.704 238.334 C 119.731 241.009,114.898 244.083,112.963 245.166 C 111.028 246.249,109.028 247.419,108.519 247.766 C 108.009 248.114,107.269 248.516,106.873 248.659 C 105.714 249.080,107.085 247.720,109.488 246.064 C 111.501 244.678,111.782 244.303,111.115 243.892 C 110.914 243.767,110.833 243.885,110.936 244.153 C 111.046 244.440,110.594 244.925,109.834 245.334 C 108.101 246.267,104.563 249.482,104.894 249.824 C 105.184 250.123,106.593 249.469,109.444 247.712 C 110.463 247.085,112.796 245.737,114.630 244.717 C 116.463 243.697,118.543 242.385,119.251 241.802 C 119.960 241.218,120.737 240.741,120.979 240.741 C 121.222 240.741,121.475 240.616,121.543 240.463 C 122.160 239.074,144.997 225.756,151.218 223.157 C 152.591 222.583,153.124 222.960,152.278 223.907 C 152.105 224.101,151.167 226.259,150.193 228.704 C 149.218 231.148,147.777 234.436,146.988 236.010 C 146.200 237.584,145.566 239.084,145.579 239.344 C 145.615 240.067,148.641 233.701,150.770 228.422 C 151.818 225.823,152.824 223.604,153.005 223.493 C 153.417 223.238,153.440 221.852,153.031 221.852 C 152.865 221.852,150.740 222.874,148.309 224.123 M169.314 231.680 C 168.051 235.453,166.683 239.390,166.273 240.429 C 165.864 241.468,165.591 242.381,165.668 242.458 C 165.744 242.535,166.246 241.471,166.782 240.095 C 168.277 236.260,171.938 225.148,171.764 224.974 C 171.680 224.890,170.577 227.907,169.314 231.680 M143.686 243.056 C 140.097 250.061,137.344 253.296,132.407 256.310 C 118.515 264.790,112.800 271.714,106.131 288.148 C 105.759 289.065,105.165 290.481,104.812 291.296 C 103.921 293.354,103.535 294.719,103.975 294.259 C 104.170 294.056,104.710 292.889,105.176 291.667 C 112.059 273.613,118.524 265.173,131.290 257.572 C 135.242 255.219,139.189 251.667,140.939 248.889 C 142.151 246.965,144.740 242.097,145.214 240.850 C 145.867 239.132,145.211 240.080,143.686 243.056 M164.095 245.822 C 163.440 247.407,160.981 253.454,158.629 259.259 L 154.354 269.815 154.959 273.704 C 156.859 285.930,153.877 298.671,144.412 318.773 C 143.819 320.033,143.333 321.141,143.333 321.235 C 143.333 321.393,142.260 323.683,137.315 334.074 C 136.297 336.213,133.632 341.679,131.392 346.221 C 129.152 350.763,127.384 354.544,127.463 354.624 C 127.725 354.885,141.961 325.831,143.702 321.481 C 144.069 320.565,145.154 318.150,146.114 316.115 C 148.068 311.972,150.782 305.125,151.914 301.481 C 152.325 300.157,152.833 298.657,153.043 298.148 C 155.504 292.159,156.543 281.237,155.355 273.854 C 154.700 269.781,154.589 270.351,157.402 263.333 C 158.587 260.380,160.250 256.213,161.100 254.074 C 161.949 251.935,162.976 249.456,163.383 248.565 C 164.602 245.891,165.592 243.247,165.434 243.089 C 165.353 243.007,164.750 244.237,164.095 245.822 M141.137 261.758 C 140.262 263.676,134.444 277.738,134.444 277.933 C 134.444 278.040,134.038 279.007,133.540 280.082 C 132.733 281.827,127.869 293.662,125.835 298.830 C 125.329 300.116,124.762 300.920,124.214 301.128 C 122.971 301.601,122.593 302.350,118.896 311.667 C 117.036 316.352,115.362 320.519,115.175 320.926 C 114.657 322.054,98.118 363.313,97.527 364.952 C 97.243 365.740,96.753 366.882,96.440 367.488 C 96.126 368.094,93.960 373.366,91.626 379.203 C 89.117 385.477,87.068 390.080,86.613 390.463 C 85.854 391.102,85.854 391.111,86.586 391.111 C 87.210 391.111,87.875 389.734,90.743 382.500 C 92.622 377.764,95.626 370.389,97.421 366.111 C 100.387 359.040,107.331 341.877,108.884 337.778 C 116.781 316.940,123.492 301.481,124.644 301.481 C 125.132 301.481,126.078 299.476,128.837 292.593 C 130.887 287.476,136.028 275.039,139.603 266.544 C 140.875 263.523,141.845 260.980,141.758 260.894 C 141.672 260.808,141.393 261.197,141.137 261.758 M103.069 295.770 C 102.846 296.365,102.413 297.602,102.108 298.519 C 100.734 302.651,99.093 307.406,98.338 309.444 C 97.885 310.667,96.879 313.667,96.104 316.111 C 95.328 318.556,94.202 322.056,93.601 323.889 C 93.000 325.722,92.297 327.972,92.039 328.889 C 91.780 329.806,91.120 331.972,90.571 333.704 C 88.597 339.931,84.710 352.692,84.027 355.185 C 83.831 355.898,83.181 358.065,82.581 360.000 C 80.633 366.290,78.065 374.956,77.588 376.852 C 77.332 377.870,76.687 380.165,76.154 381.950 C 74.986 385.865,74.943 386.881,75.926 387.407 C 77.248 388.115,78.008 387.257,79.451 383.429 C 80.200 381.441,81.947 376.898,83.333 373.333 C 84.719 369.769,85.965 366.435,86.104 365.926 C 86.242 365.417,86.666 364.167,87.046 363.148 C 91.087 352.317,97.546 334.664,99.243 329.815 C 99.813 328.185,100.865 325.352,101.581 323.519 C 102.297 321.685,103.718 317.852,104.737 315.000 C 111.164 297.027,111.506 296.331,113.663 296.841 C 116.655 297.547,116.540 299.571,112.990 308.662 C 112.760 309.251,112.630 309.791,112.702 309.862 C 112.816 309.976,114.131 306.799,115.556 302.963 C 116.986 299.113,116.009 296.519,113.130 296.519 C 111.527 296.519,110.700 297.349,109.844 299.815 C 109.491 300.833,109.067 302.000,108.902 302.407 C 108.388 303.677,104.965 312.984,103.726 316.481 C 103.077 318.315,101.806 321.731,100.902 324.074 C 99.999 326.417,98.444 330.667,97.446 333.519 C 96.449 336.370,95.270 339.620,94.827 340.741 C 94.038 342.736,92.964 345.736,90.920 351.661 C 90.359 353.287,89.574 355.370,89.175 356.290 C 88.777 357.210,87.786 359.880,86.975 362.222 C 85.322 366.992,80.992 378.439,78.919 383.519 C 77.726 386.441,77.447 386.852,76.650 386.852 C 75.017 386.852,75.099 386.496,81.921 363.704 C 82.745 360.954,83.717 357.620,84.083 356.296 C 84.448 354.972,85.192 352.472,85.735 350.741 C 87.561 344.924,88.544 341.679,89.101 339.630 C 89.405 338.509,89.885 336.926,90.168 336.111 C 90.451 335.296,91.554 331.880,92.621 328.519 C 93.687 325.157,94.960 321.241,95.448 319.815 C 95.937 318.389,96.574 316.354,96.863 315.294 C 97.153 314.233,97.740 312.400,98.168 311.220 C 98.596 310.040,99.413 307.657,99.984 305.926 C 100.554 304.194,101.630 301.128,102.375 299.113 C 103.120 297.097,103.672 295.277,103.603 295.067 C 103.533 294.858,103.293 295.174,103.069 295.770 M135.627 306.510 C 134.816 307.078,132.462 311.474,132.792 311.804 C 132.882 311.895,133.449 310.883,134.050 309.556 C 135.381 306.621,136.609 305.864,138.475 306.829 C 140.445 307.848,140.376 309.365,138.139 314.259 C 135.782 319.418,134.056 323.346,132.815 326.380 C 132.087 328.158,131.157 330.238,130.746 331.004 C 130.336 331.770,130.000 332.531,130.000 332.695 C 130.000 332.859,129.497 334.070,128.882 335.385 C 128.267 336.700,127.002 339.636,126.072 341.908 C 125.141 344.181,124.233 346.306,124.054 346.631 C 123.438 347.749,121.551 352.044,119.888 356.111 C 118.972 358.352,117.610 361.519,116.862 363.148 C 116.113 364.778,115.096 366.991,114.602 368.066 C 114.108 369.141,113.704 370.162,113.704 370.334 C 113.704 370.678,112.487 373.491,110.520 377.693 C 109.826 379.175,109.259 380.555,109.259 380.762 C 109.259 380.968,109.017 381.506,108.722 381.957 C 107.915 383.189,102.593 396.629,102.593 397.435 C 102.593 398.250,104.261 398.816,105.101 398.286 C 105.399 398.097,107.415 394.448,109.581 390.175 C 111.747 385.903,113.603 382.324,113.706 382.222 C 113.894 382.036,115.473 378.954,123.098 363.889 C 127.611 354.974,127.682 354.822,127.121 355.370 C 126.912 355.574,123.831 361.491,120.273 368.519 C 116.716 375.546,113.141 382.546,112.329 384.074 C 111.517 385.602,109.628 389.269,108.130 392.222 C 105.304 397.794,105.066 398.133,103.970 398.142 C 102.432 398.156,103.632 394.500,109.742 380.556 C 110.457 378.926,112.043 375.259,113.268 372.407 C 114.492 369.556,116.355 365.306,117.406 362.963 C 118.458 360.620,119.890 357.247,120.589 355.467 C 121.288 353.687,122.177 351.604,122.565 350.837 C 123.866 348.269,125.521 344.553,126.422 342.174 C 126.914 340.876,127.920 338.531,128.658 336.962 C 129.396 335.392,130.000 334.016,130.000 333.904 C 130.000 333.792,130.424 332.826,130.943 331.757 C 131.462 330.689,132.534 328.231,133.326 326.296 C 134.118 324.361,135.621 320.861,136.667 318.519 C 140.264 310.459,140.488 309.818,140.217 308.375 C 139.823 306.274,137.380 305.282,135.627 306.510 M111.932 311.377 C 111.718 311.944,111.297 313.157,110.996 314.074 C 110.695 314.991,110.337 316.074,110.201 316.481 C 110.041 316.958,110.146 316.892,110.494 316.296 C 111.125 315.217,112.656 310.681,112.457 310.482 C 112.383 310.408,112.147 310.810,111.932 311.377 M131.213 314.927 C 130.168 316.951,128.482 321.198,128.654 321.370 C 128.803 321.519,130.370 318.004,130.370 317.521 C 130.370 317.353,130.799 316.411,131.324 315.426 C 131.848 314.441,132.218 313.576,132.146 313.504 C 132.074 313.432,131.654 314.072,131.213 314.927 M109.526 317.901 C 109.379 318.274,109.259 318.811,109.259 319.093 C 109.259 319.376,108.858 320.488,108.367 321.563 C 107.876 322.639,107.135 324.519,106.722 325.741 C 106.308 326.963,105.275 329.880,104.427 332.222 C 103.579 334.565,102.413 337.815,101.835 339.444 C 101.258 341.074,100.093 344.324,99.246 346.667 C 98.400 349.009,96.909 353.176,95.933 355.926 C 93.378 363.121,92.996 364.173,92.633 365.000 C 92.454 365.407,91.686 367.574,90.927 369.815 C 90.167 372.056,88.821 375.972,87.936 378.519 C 87.051 381.065,86.325 383.315,86.323 383.519 C 86.314 384.290,87.004 382.666,87.975 379.630 C 88.529 377.898,89.400 375.398,89.910 374.074 C 90.957 371.361,92.161 367.962,92.469 366.852 C 92.582 366.444,93.316 364.361,94.102 362.222 C 95.536 358.316,97.561 352.682,99.761 346.481 C 100.412 344.648,101.045 342.981,101.169 342.778 C 101.293 342.574,101.507 341.881,101.645 341.238 C 101.783 340.595,102.477 338.595,103.187 336.794 C 103.897 334.992,105.071 331.769,105.797 329.630 C 106.523 327.491,107.775 324.103,108.580 322.101 C 109.385 320.098,109.987 318.182,109.918 317.841 C 109.807 317.292,109.763 317.298,109.526 317.901 M127.417 323.799 C 126.944 324.867,126.089 326.787,125.519 328.066 C 124.948 329.345,124.616 330.308,124.781 330.206 C 125.178 329.961,128.631 322.211,128.432 322.012 C 128.347 321.927,127.890 322.731,127.417 323.799 M275.577 329.734 C 275.565 329.893,276.222 331.199,277.037 332.637 C 277.852 334.075,278.519 335.308,278.519 335.378 C 278.519 335.784,283.443 343.333,283.708 343.333 C 284.346 343.333,284.268 340.551,283.591 339.131 C 283.217 338.347,282.823 337.795,282.714 337.903 C 282.606 338.012,282.784 338.481,283.110 338.947 C 283.437 339.413,283.704 340.367,283.704 341.066 C 283.704 343.063,282.648 341.806,279.242 335.749 C 275.931 329.861,275.608 329.330,275.577 329.734 M279.657 329.841 C 279.619 330.401,280.794 333.774,280.966 333.601 C 281.045 333.523,280.788 332.556,280.396 331.452 C 280.004 330.348,279.672 329.623,279.657 329.841 M123.216 333.216 C 121.940 336.432,122.189 336.681,123.528 333.528 C 124.095 332.194,124.478 331.021,124.379 330.922 C 124.280 330.823,123.756 331.855,123.216 333.216 M120.056 340.426 C 119.002 342.699,118.223 344.642,118.325 344.745 C 118.428 344.848,119.024 343.780,119.651 342.373 C 120.277 340.966,121.121 339.088,121.527 338.200 C 121.932 337.312,122.199 336.520,122.119 336.440 C 122.039 336.360,121.111 338.154,120.056 340.426 M116.318 349.000 C 115.426 351.078,114.295 353.611,113.803 354.630 C 113.312 355.648,112.437 357.648,111.859 359.074 C 111.280 360.500,109.944 363.500,108.890 365.741 C 107.836 367.981,106.590 370.815,106.121 372.037 C 105.653 373.259,104.439 375.926,103.424 377.963 C 102.409 380.000,101.453 382.070,101.300 382.564 C 101.146 383.057,100.236 385.140,99.277 387.193 C 98.318 389.246,97.323 391.456,97.066 392.103 C 96.421 393.727,95.415 394.567,94.471 394.268 C 93.228 393.873,93.876 391.577,98.135 381.296 C 100.449 375.709,101.165 373.685,100.421 374.829 C 99.812 375.767,94.152 390.070,93.655 391.928 C 92.734 395.370,95.410 396.037,97.037 392.770 C 98.896 389.038,104.211 377.429,107.971 368.889 C 108.734 367.157,109.919 364.529,110.605 363.047 C 111.291 361.566,111.852 360.256,111.852 360.135 C 111.852 360.015,112.628 358.227,113.577 356.162 C 117.346 347.958,118.327 345.611,118.090 345.374 C 118.007 345.291,117.209 346.923,116.318 349.000 M85.353 385.825 C 84.496 388.052,84.408 390.782,85.185 391.028 C 85.634 391.170,85.651 391.109,85.278 390.713 C 84.636 390.033,84.695 389.221,85.574 386.612 C 86.483 383.913,86.317 383.320,85.353 385.825 " stroke="none" fill="#999999" fill-rule="evenodd"></path><path id="path4" d="M228.436 14.346 C 229.307 14.424,230.640 14.423,231.399 14.343 C 232.157 14.264,231.444 14.200,229.815 14.201 C 228.185 14.202,227.565 14.268,228.436 14.346 M220.804 44.722 C 220.169 46.351,219.166 50.771,219.383 50.988 C 219.611 51.216,220.227 49.055,220.588 46.759 C 220.740 45.792,221.031 45.185,221.344 45.185 C 221.623 45.185,221.852 44.852,221.852 44.444 C 221.852 43.378,221.268 43.533,220.804 44.722 M221.941 48.519 C 221.928 50.250,222.047 52.500,222.205 53.519 C 222.609 56.114,222.635 51.329,222.235 47.778 L 221.965 45.370 221.941 48.519 M218.432 53.226 C 218.129 54.202,217.588 56.000,217.231 57.222 C 216.874 58.444,216.201 60.611,215.736 62.037 C 213.756 68.104,212.956 70.857,213.125 71.027 C 213.353 71.254,213.681 70.385,215.191 65.556 C 215.859 63.417,216.612 61.083,216.864 60.370 C 217.664 58.101,219.310 51.779,219.144 51.613 C 219.056 51.525,218.735 52.251,218.432 53.226 M222.825 58.519 C 222.927 60.250,223.247 63.417,223.537 65.556 C 223.826 67.694,224.324 71.611,224.644 74.259 C 224.964 76.907,225.377 80.324,225.561 81.852 C 225.904 84.683,226.506 89.368,226.870 92.037 C 226.982 92.852,227.234 94.757,227.431 96.271 C 227.861 99.578,228.269 100.326,227.939 97.203 C 227.671 94.664,226.417 84.459,225.871 80.370 C 225.284 75.973,224.963 73.274,224.110 65.556 C 223.179 57.133,222.533 53.600,222.825 58.519 M211.901 74.094 C 210.831 77.473,207.742 87.001,206.059 92.115 C 205.375 94.195,204.820 96.111,204.826 96.374 C 204.847 97.263,205.595 95.567,206.458 92.674 C 206.927 91.101,208.591 85.919,210.155 81.158 C 211.720 76.398,212.949 72.240,212.888 71.919 C 212.826 71.599,212.382 72.577,211.901 74.094 M203.361 100.752 C 202.694 102.884,201.926 105.296,201.655 106.111 C 201.385 106.926,200.302 110.343,199.249 113.704 C 198.197 117.065,196.768 121.565,196.075 123.704 C 195.381 125.843,194.490 128.593,194.093 129.815 C 193.697 131.037,192.267 135.537,190.915 139.815 C 189.564 144.093,187.492 150.593,186.311 154.259 C 185.130 157.926,183.048 164.426,181.684 168.704 C 180.320 172.981,178.486 178.731,177.607 181.481 C 176.729 184.231,175.755 187.315,175.444 188.333 C 169.834 206.685,170.271 206.101,157.474 212.415 C 144.651 218.743,140.033 221.211,133.763 225.086 C 131.650 226.392,129.648 227.561,129.313 227.683 C 128.518 227.973,119.871 233.323,119.630 233.674 C 119.528 233.822,119.194 234.035,118.889 234.147 C 118.099 234.438,112.269 238.759,110.833 240.118 C 109.599 241.285,109.155 243.367,110.025 243.904 C 110.243 244.039,110.335 244.374,110.229 244.648 C 110.106 244.969,110.229 245.074,110.574 244.942 C 111.261 244.678,111.255 244.284,110.556 243.704 C 108.997 242.410,111.295 239.743,117.549 235.584 C 121.350 233.056,130.656 227.370,132.593 226.391 C 133.102 226.133,134.269 225.429,135.185 224.825 C 136.102 224.221,137.769 223.220,138.889 222.601 C 140.009 221.982,141.176 221.335,141.481 221.164 C 143.479 220.043,145.300 219.108,154.223 214.623 C 168.509 207.442,169.741 206.597,171.107 203.049 C 171.556 201.881,172.065 200.593,172.236 200.185 C 172.408 199.778,173.323 196.944,174.268 193.889 C 176.777 185.781,182.121 168.938,184.079 162.963 C 184.647 161.231,185.809 157.565,186.662 154.815 C 187.514 152.065,188.929 147.648,189.807 145.000 C 190.684 142.352,192.101 137.935,192.957 135.185 C 193.812 132.435,194.646 129.852,194.811 129.444 C 194.976 129.037,195.444 127.620,195.852 126.296 C 198.085 119.046,200.856 110.278,201.530 108.333 C 202.309 106.085,202.686 104.869,204.058 100.189 C 205.279 96.026,204.692 96.500,203.361 100.752 M228.198 101.340 C 228.171 102.383,228.380 104.633,228.663 106.340 C 228.946 108.048,229.486 111.611,229.862 114.259 C 230.239 116.907,230.606 118.666,230.679 118.168 C 230.813 117.252,229.923 109.903,229.265 106.481 C 229.069 105.463,228.760 103.463,228.579 102.037 C 228.255 99.492,228.248 99.479,228.198 101.340 M230.956 122.252 C 231.076 123.560,231.262 124.880,231.369 125.185 C 231.477 125.491,231.791 127.741,232.067 130.185 C 232.573 134.676,233.004 138.045,233.676 142.778 C 233.878 144.204,234.210 146.620,234.414 148.148 C 235.190 153.974,236.857 163.483,236.967 162.710 C 237.071 161.979,236.599 158.547,234.964 148.148 C 234.660 146.213,234.261 143.463,234.078 142.037 C 231.897 125.056,231.218 120.354,230.904 120.039 C 230.813 119.949,230.837 120.945,230.956 122.252 M343.634 149.082 C 343.440 149.276,340.863 149.678,335.370 150.370 C 333.741 150.575,331.657 150.901,330.741 151.094 C 329.824 151.287,327.324 151.714,325.185 152.043 C 320.231 152.805,315.818 153.683,315.566 153.956 C 315.388 154.150,317.774 153.884,319.756 153.489 C 324.516 152.542,335.482 150.797,341.667 150.004 C 343.093 149.821,344.843 149.512,345.556 149.318 L 346.852 148.965 345.340 148.927 C 344.508 148.906,343.740 148.976,343.634 149.082 M312.778 154.444 L 311.667 154.727 312.778 154.745 C 313.389 154.755,314.222 154.620,314.630 154.444 L 315.370 154.126 314.630 154.144 C 314.222 154.154,313.389 154.289,312.778 154.444 M304.630 156.181 C 302.593 156.687,300.637 157.254,300.283 157.440 C 299.929 157.626,299.302 157.778,298.889 157.778 C 298.085 157.778,291.418 159.485,290.185 160.007 C 288.603 160.676,290.754 160.364,294.347 159.404 C 296.336 158.872,298.546 158.297,299.259 158.125 C 301.345 157.621,303.411 157.113,305.000 156.713 C 305.815 156.507,306.898 156.261,307.407 156.165 C 307.917 156.069,308.750 155.820,309.259 155.611 L 310.185 155.232 309.259 155.246 C 308.750 155.253,306.667 155.674,304.630 156.181 M287.222 160.742 C 286.611 160.905,284.861 161.402,283.333 161.846 C 281.806 162.291,280.097 162.743,279.537 162.851 C 278.977 162.959,278.519 163.213,278.519 163.415 C 278.519 163.617,278.810 163.670,279.167 163.533 C 279.523 163.395,281.065 162.955,282.593 162.554 C 286.643 161.491,289.259 160.693,289.259 160.521 C 289.259 160.313,288.539 160.391,287.222 160.742 M276.667 163.733 C 276.157 163.910,274.324 164.473,272.593 164.985 C 265.609 167.051,260.274 168.684,256.852 169.805 C 255.426 170.272,252.343 171.272,250.000 172.027 C 247.657 172.781,245.407 173.532,245.000 173.696 C 243.525 174.286,239.621 175.300,239.456 175.135 C 239.363 175.042,239.037 173.474,238.732 171.650 C 237.616 164.981,237.427 163.970,237.266 163.809 C 236.959 163.502,237.480 168.325,237.975 170.370 C 238.246 171.491,238.581 173.199,238.720 174.167 C 239.037 176.368,238.763 176.389,247.037 173.526 C 249.258 172.758,251.873 171.916,258.148 169.948 C 259.472 169.533,260.889 169.059,261.296 168.896 C 261.704 168.733,263.287 168.235,264.815 167.791 C 267.826 166.915,270.651 166.087,272.407 165.566 C 273.019 165.385,274.418 164.984,275.518 164.674 C 276.618 164.365,277.693 163.937,277.907 163.723 C 278.356 163.274,277.982 163.277,276.667 163.733 M227.006 179.132 C 226.873 179.502,221.462 181.613,207.222 186.852 C 204.106 187.999,197.635 190.677,188.528 194.590 C 186.117 195.625,184.559 196.112,184.413 195.875 C 184.275 195.651,184.076 195.758,183.932 196.133 C 183.566 197.086,183.912 197.198,185.265 196.564 C 185.934 196.250,187.481 195.580,188.704 195.076 C 191.607 193.876,199.506 190.485,200.926 189.827 C 203.262 188.746,216.109 183.972,223.704 181.365 C 226.779 180.309,227.544 179.855,227.332 179.218 C 227.217 178.874,227.109 178.846,227.006 179.132 M240.913 186.111 C 241.059 187.130,241.395 188.880,241.659 190.000 C 241.922 191.120,242.331 192.954,242.567 194.074 C 242.803 195.194,243.499 198.361,244.114 201.111 C 244.730 203.861,245.377 206.893,245.554 207.849 C 245.730 208.804,246.132 210.471,246.446 211.552 C 246.761 212.634,247.449 215.352,247.976 217.593 C 249.711 224.964,253.296 239.098,254.506 243.333 C 254.710 244.046,255.176 245.880,255.541 247.407 C 255.906 248.935,256.573 251.519,257.022 253.148 C 257.471 254.778,257.959 256.784,258.108 257.606 C 258.256 258.428,258.482 259.270,258.609 259.477 C 258.737 259.684,259.257 261.594,259.764 263.723 C 260.844 268.255,262.909 275.964,264.288 280.612 C 265.272 283.928,265.598 285.062,266.238 287.407 C 266.433 288.120,266.755 289.204,266.953 289.815 C 267.152 290.426,267.771 292.426,268.328 294.259 C 268.885 296.093,269.884 299.259,270.549 301.296 C 271.213 303.333,272.627 307.750,273.691 311.111 C 274.755 314.472,276.027 318.415,276.517 319.873 C 277.007 321.331,277.407 322.711,277.407 322.941 C 277.407 323.546,278.500 326.068,278.683 325.885 C 278.849 325.719,277.146 319.819,276.130 317.037 C 275.795 316.120,275.283 314.503,274.992 313.442 C 274.700 312.381,274.117 310.548,273.694 309.368 C 273.272 308.188,272.180 304.806,271.267 301.852 C 270.354 298.898,269.458 296.148,269.276 295.741 C 269.094 295.333,268.861 294.583,268.759 294.074 C 268.658 293.565,267.880 290.898,267.031 288.148 C 266.182 285.398,265.275 282.315,265.014 281.296 C 264.754 280.278,263.853 276.944,263.012 273.889 C 262.171 270.833,261.306 267.667,261.090 266.852 C 260.873 266.037,260.470 264.537,260.193 263.519 C 259.917 262.500,259.524 261.000,259.319 260.185 C 258.663 257.570,257.729 253.926,257.372 252.593 C 257.182 251.880,256.683 249.880,256.263 248.148 C 255.844 246.417,255.362 244.500,255.192 243.889 C 254.903 242.849,254.373 240.883,252.544 234.074 C 252.133 232.546,251.652 230.630,251.474 229.815 C 251.297 229.000,250.710 226.667,250.171 224.630 C 249.632 222.593,249.047 220.231,248.871 219.381 C 248.696 218.532,248.205 216.448,247.781 214.752 C 247.006 211.653,246.096 207.698,244.813 201.852 C 244.432 200.120,243.843 197.454,243.503 195.926 C 243.163 194.398,242.503 191.263,242.037 188.959 C 241.166 184.655,240.437 182.808,240.913 186.111 M167.984 203.169 C 167.844 203.912,167.804 204.594,167.895 204.685 C 167.985 204.775,168.173 204.241,168.313 203.498 C 168.452 202.755,168.492 202.072,168.402 201.982 C 168.311 201.891,168.123 202.425,167.984 203.169 M230.376 203.920 C 230.379 204.310,230.551 204.880,230.758 205.185 C 231.032 205.591,231.067 205.441,230.885 204.630 C 230.580 203.268,230.368 202.972,230.376 203.920 M161.865 215.531 C 161.316 216.557,161.391 216.832,162.067 216.271 C 162.768 215.690,162.547 217.747,161.666 220.000 C 161.387 220.713,160.670 222.630,160.073 224.259 C 159.015 227.143,155.194 236.836,154.230 239.081 C 153.966 239.696,152.641 242.946,151.284 246.303 C 149.071 251.783,148.068 254.185,147.033 256.481 C 146.850 256.889,146.268 258.306,145.741 259.630 C 145.213 260.954,144.632 262.370,144.450 262.778 C 143.449 265.010,141.852 268.856,141.852 269.033 C 141.852 269.145,141.451 270.117,140.962 271.193 C 140.473 272.268,138.956 275.815,137.592 279.074 C 134.644 286.117,134.513 286.429,132.987 290.000 C 132.334 291.528,131.488 293.528,131.107 294.444 C 130.726 295.361,129.821 297.418,129.096 299.014 C 128.371 300.611,127.778 302.000,127.778 302.101 C 127.778 302.559,125.384 307.699,124.754 308.593 C 124.093 309.532,119.746 320.424,119.389 322.037 C 119.162 323.065,120.481 320.279,121.493 317.593 C 121.954 316.370,122.552 314.870,122.823 314.259 C 123.093 313.648,123.562 312.437,123.865 311.568 C 124.168 310.699,124.820 309.449,125.313 308.790 C 125.807 308.132,126.334 307.176,126.486 306.667 C 126.637 306.157,127.407 304.349,128.195 302.648 C 128.984 300.948,129.630 299.466,129.630 299.355 C 129.630 299.112,135.264 285.760,136.469 283.148 C 136.939 282.130,137.691 280.380,138.140 279.259 C 138.985 277.154,141.122 272.042,142.243 269.444 C 143.653 266.178,146.797 258.594,147.463 256.852 C 147.853 255.833,148.323 254.667,148.508 254.259 C 149.379 252.340,151.486 247.334,152.404 245.000 C 152.964 243.574,153.642 241.907,153.909 241.296 C 154.176 240.685,155.501 237.352,156.854 233.889 C 158.207 230.426,159.461 227.259,159.641 226.852 C 161.665 222.255,163.576 215.877,163.140 215.172 C 162.792 214.609,162.282 214.752,161.865 215.531 M156.050 281.111 C 156.050 282.639,156.116 283.264,156.196 282.500 C 156.276 281.736,156.276 280.486,156.196 279.722 C 156.116 278.958,156.050 279.583,156.050 281.111 M132.573 312.459 C 132.369 312.996,132.270 313.505,132.354 313.589 C 132.438 313.673,132.684 313.233,132.901 312.611 C 133.383 311.230,133.092 311.094,132.573 312.459 M131.461 315.091 C 130.624 316.760,130.636 316.925,131.500 315.633 C 131.948 314.962,132.238 314.336,132.143 314.242 C 132.049 314.148,131.742 314.530,131.461 315.091 M118.519 323.480 C 118.519 323.764,117.997 325.222,117.359 326.720 C 116.256 329.314,114.882 332.939,113.309 337.407 C 112.915 338.528,112.431 339.778,112.234 340.185 C 111.489 341.724,108.854 349.025,105.816 357.963 C 104.085 363.056,102.074 368.964,101.347 371.092 C 99.951 375.177,99.742 376.759,101.084 373.081 C 101.517 371.896,102.021 370.593,102.205 370.185 C 102.389 369.778,102.814 368.528,103.148 367.407 C 103.483 366.287,103.904 365.037,104.083 364.630 C 104.263 364.222,104.573 363.306,104.773 362.593 C 105.219 361.000,108.353 352.052,108.618 351.613 C 108.723 351.439,109.159 350.157,109.588 348.764 C 110.016 347.371,110.595 345.705,110.874 345.060 C 111.154 344.416,111.832 342.639,112.381 341.111 C 112.931 339.583,113.620 337.786,113.913 337.117 C 114.205 336.448,114.444 335.656,114.444 335.358 C 114.444 335.059,114.611 334.815,114.815 334.815 C 115.019 334.815,115.185 334.497,115.185 334.109 C 115.185 333.720,115.679 332.302,116.283 330.956 C 116.886 329.611,117.584 327.804,117.833 326.940 C 118.081 326.077,118.504 325.042,118.772 324.640 C 119.350 323.773,119.407 322.963,118.889 322.963 C 118.685 322.963,118.519 323.196,118.519 323.480 M278.940 326.852 C 278.935 327.259,279.256 328.343,279.655 329.259 C 280.341 330.837,280.368 330.857,280.146 329.630 C 279.828 327.861,278.953 325.847,278.940 326.852 M284.074 342.077 C 284.074 343.132,283.953 343.366,283.499 343.192 C 283.170 343.066,283.021 343.128,283.151 343.338 C 283.731 344.276,284.444 343.661,284.444 342.222 C 284.444 341.407,284.361 340.741,284.259 340.741 C 284.157 340.741,284.074 341.342,284.074 342.077 " stroke="none" fill="#da9c9b" fill-rule="evenodd"></path></g></svg>